<svg width="64" height="64" viewBox="0 0 64 64" fill="none" xmlns="http://www.w3.org/2000/svg">
<path d="M39.7243 62H21.1506C17.6572 62 14.4663 60.5735 12.3959 58.0862C8.86585 53.8457 7 48.7155 7 43.25C7 38.5068 8.45582 33.9382 11.2208 29.9698C11.2208 29.9698 8.82168 18.8314 8.81945 18.8202C7.99011 14.6737 9.05218 10.4192 11.7332 7.14746C14.414 3.87617 18.3775 2 22.6075 2H38.2675C42.4975 2 46.461 3.87617 49.1418 7.14746C51.8228 10.4191 52.8849 14.6737 52.0555 18.8202C52.0532 18.8315 49.6676 29.9029 49.6676 29.9029C52.0887 33.3753 53.5177 37.3842 53.8152 41.5641C53.8548 42.1193 53.875 42.6864 53.875 43.25C53.875 48.7155 52.0091 53.8457 48.4791 58.0862C46.4086 60.5735 43.2178 62 39.7243 62ZM13.4127 17.8851L16.0244 30.0092C16.1688 30.6802 16.012 31.3809 15.5951 31.9263C13.0387 35.27 11.6875 39.1857 11.6875 43.25C11.6875 47.6061 13.1782 51.6993 15.9985 55.0871C17.1757 56.5013 19.0535 57.3125 21.1506 57.3125H39.7243C41.8215 57.3125 43.6993 56.5014 44.8763 55.0872C47.6967 51.6993 49.1874 47.6061 49.1874 43.25C49.1874 42.7972 49.1712 42.342 49.1396 41.8974C49.1396 41.8973 49.1396 41.8971 49.1396 41.897C48.8817 38.2727 47.5525 34.8036 45.296 31.8646C44.8769 31.3188 44.7188 30.6164 44.8638 29.9436L47.4622 17.8852C48.0092 15.1259 47.3003 12.296 45.516 10.1186C43.7293 7.93812 41.0872 6.6875 38.2674 6.6875H22.6075C19.7877 6.6875 17.1457 7.93812 15.359 10.1185C13.5746 12.2959 12.8657 15.1258 13.4127 17.8851ZM37.9453 27.0552C35.5022 25.9817 32.9761 25.4375 30.4374 25.4375C27.8606 25.4375 25.3326 25.9735 22.9239 27.0307C22.2739 27.3159 21.5296 27.2913 20.8999 26.9635C20.2703 26.6357 19.8231 26.0402 19.6839 25.3441L18.0114 16.9798C17.7363 15.5948 18.0919 14.178 18.986 13.0895C19.8707 12.0027 21.193 11.375 22.6075 11.375H38.2675C39.6819 11.375 41.0043 12.0027 41.8954 13.0972C42.7832 14.178 43.1387 15.5949 42.8644 16.9767L41.1864 25.3689C41.0472 26.0652 40.5999 26.6608 39.97 26.9886C39.3536 27.3091 38.6094 27.3468 37.9453 27.0552ZM30.4374 20.75C32.6935 20.75 34.9341 21.0886 37.1279 21.7589L38.2665 16.0643C38.2661 16.0639 38.2655 16.0633 38.2647 16.0625H22.61C22.6093 16.0632 22.6087 16.0638 22.6084 16.0643L23.7432 21.7396C25.9206 21.0821 28.1624 20.75 30.4374 20.75Z" fill="url(#paint0_linear_47_16204)"/>
<path d="M30.4375 50.2812C26.5605 50.2812 23.4062 47.127 23.4062 43.25C23.4062 39.373 26.5605 36.2188 30.4375 36.2188C34.3145 36.2188 37.4687 39.373 37.4687 43.25C37.4687 47.127 34.3145 50.2812 30.4375 50.2812ZM30.4375 40.9062C29.1451 40.9062 28.0937 41.9577 28.0937 43.25C28.0937 44.5423 29.1451 45.5938 30.4375 45.5938C31.7298 45.5938 32.7812 44.5423 32.7812 43.25C32.7812 41.9577 31.7298 40.9062 30.4375 40.9062Z" fill="url(#paint1_linear_47_16204)"/>
<defs>
<linearGradient id="paint0_linear_47_16204" x1="53.875" y1="32" x2="7" y2="32" gradientUnits="userSpaceOnUse">
<stop stop-color="#FBAC46"/>
<stop offset="1" stop-color="#FB273E"/>
</linearGradient>
<linearGradient id="paint1_linear_47_16204" x1="37.4687" y1="43.25" x2="23.4062" y2="43.25" gradientUnits="userSpaceOnUse">
<stop stop-color="#FBAC46"/>
<stop offset="1" stop-color="#FB273E"/>
</linearGradient>
</defs>
</svg>
