<svg width="16" height="16" viewBox="0 0 16 16" fill="none" xmlns="http://www.w3.org/2000/svg">
<path d="M13.0594 4.45734C12.3936 4.31493 11.7907 3.96358 11.3386 3.45451C10.8865 2.94545 10.6088 2.30528 10.5461 1.62734V1.33334H8.24939V10.448C8.24797 10.8515 8.12015 11.2445 7.88389 11.5716C7.64764 11.8987 7.31483 12.1436 6.93222 12.2718C6.54961 12.4 6.13645 12.4052 5.75078 12.2864C5.36512 12.1677 5.02634 11.9312 4.78205 11.61C4.53398 11.2835 4.39636 10.8864 4.38917 10.4764C4.38197 10.0663 4.50557 9.66466 4.74203 9.32961C4.9785 8.99456 5.31554 8.74354 5.70429 8.61296C6.09303 8.48237 6.51327 8.479 6.90406 8.60334V6.27001C6.03262 6.14954 5.14533 6.30447 4.36629 6.71312C3.58724 7.12177 2.95541 7.76371 2.55917 8.54914C2.16293 9.33456 2.0221 10.2242 2.15638 11.0936C2.29065 11.963 2.69332 12.7687 3.30805 13.398C3.89429 13.9978 4.64598 14.4094 5.46716 14.5801C6.28834 14.7508 7.14176 14.6729 7.91849 14.3564C8.69522 14.0399 9.36001 13.4992 9.82802 12.8031C10.296 12.1071 10.546 11.2874 10.5461 10.4487V5.79134C11.4742 6.4549 12.5871 6.8107 13.7281 6.80868V4.52668C13.5034 4.52695 13.2792 4.50372 13.0594 4.45734Z" fill="white"/>
</svg>
