<svg width="18" height="13" viewBox="0 0 18 13" fill="none" xmlns="http://www.w3.org/2000/svg">
<path d="M9.39878 12.7075L5.70588 12.6384C4.5102 12.6144 3.31154 12.6624 2.13931 12.4132C0.356065 12.041 0.229734 10.2156 0.097542 8.68446C-0.0846053 6.53188 -0.0140906 4.34023 0.329645 2.20561C0.523695 1.00787 1.28736 0.293172 2.46834 0.215399C6.45503 -0.0668511 10.4682 -0.0334016 14.4461 0.0982782C14.8662 0.11035 15.2892 0.176328 15.7034 0.251428C17.7483 0.617717 17.7981 2.68626 17.9307 4.42758C18.0629 6.18688 18.007 7.9552 17.7544 9.70251C17.5517 11.1492 17.1638 12.3625 15.5271 12.4796C13.4764 12.6327 11.4728 12.756 9.41636 12.7168C9.41645 12.7075 9.40464 12.7075 9.39878 12.7075ZM7.22771 9.04476C8.77308 8.13802 10.289 7.2464 11.8255 6.34574C10.2772 5.439 8.76424 4.54738 7.22771 3.64672V9.04476Z" fill="white"/>
</svg>
