<svg width="24" height="24" viewBox="0 0 24 24" fill="none" xmlns="http://www.w3.org/2000/svg">
<g clip-path="url(#clip0_3009_236)">
<mask id="mask0_3009_236" style="mask-type:luminance" maskUnits="userSpaceOnUse" x="0" y="0" width="32" height="24">
<path d="M0 0H32V24H0V0Z" fill="white"/>
</mask>
<g mask="url(#mask0_3009_236)">
<path fill-rule="evenodd" clip-rule="evenodd" d="M0 0H45.5978V1.84688H0V0ZM0 3.69375H45.5978V5.54062H0V3.69375ZM0 7.38281H45.5978V9.23438H0V7.38281ZM0 11.0766H45.5978V12.9234H0V11.0766ZM0 14.7703H45.5978V16.6172H0V14.7703ZM0 18.4594H45.5978V20.3063H0V18.4594ZM0 22.1531H45.5978V24H0V22.1531Z" fill="#BD3D44"/>
<path fill-rule="evenodd" clip-rule="evenodd" d="M0 1.84692H45.5978V3.6938H0V1.84692ZM0 5.54067H45.5978V7.38286H0V5.54067ZM0 9.22974H45.5978V11.0766H0V9.22974ZM0 12.9235H45.5978V14.7704H0V12.9235ZM0 16.6172H45.5978V18.4641H0V16.6172ZM0 20.3063H45.5978V22.1532H0V20.3063Z" fill="white"/>
<path fill-rule="evenodd" clip-rule="evenodd" d="M0 0H18.2382V12.9234H0V0Z" fill="#192F5D"/>
<path fill-rule="evenodd" clip-rule="evenodd" d="M1.51852 0.553223L1.68726 1.06416H2.22161L1.79038 1.37822L1.95444 1.89385L1.51852 1.5751L1.08729 1.88916L1.25135 1.37822L0.81543 1.06416H1.35915L1.51852 0.553223ZM4.56056 0.553223L4.72461 1.06416H5.26365L4.82773 1.37822L4.99179 1.89385L4.56056 1.5751L4.12464 1.88916L4.2887 1.37822L3.85747 1.06416H4.39182L4.56056 0.553223ZM7.59791 0.553223L7.76665 1.06416H8.29632L7.86509 1.37822L8.02914 1.89385L7.59323 1.5751L7.162 1.88916L7.32605 1.37822L6.89013 1.06416H7.42917L7.59791 0.553223ZM10.64 0.553223L10.804 1.06416H11.343L10.9071 1.37822L11.0759 1.89385L10.64 1.5751L10.204 1.88916L10.3728 1.37822L9.93686 1.06416H10.4712L10.64 0.553223ZM13.6773 0.553223L13.846 1.06416H14.3804L13.9492 1.37822L14.1132 1.89385L13.6773 1.5751L13.2461 1.88916L13.4101 1.37822L12.9789 1.06416H13.5132L13.6773 0.553223ZM16.7193 0.553223L16.8834 1.06416H17.4224L16.9865 1.37822L17.1553 1.89385L16.7193 1.5751L16.2834 1.88916L16.4522 1.37822L16.0163 1.06416H16.5553L16.7193 0.553223ZM3.04188 1.84697L3.20594 2.35791H3.74497L3.30906 2.67197L3.46843 3.18291L3.04657 2.86885L2.61065 3.18291L2.76533 2.67197L2.34348 2.35791H2.87783L3.04188 1.84697ZM6.07924 1.84697L6.24798 2.35791H6.78233L6.34641 2.67197L6.51515 3.18291L6.07924 2.86885L5.64332 3.18291L5.81206 2.67197L5.37614 2.35791H5.91518L6.07924 1.84697ZM9.12128 1.84697L9.28533 2.35791H9.82437L9.38845 2.67197L9.5525 3.18291L9.12128 2.86885L8.68536 3.18291L8.84941 2.67197L8.41818 2.35791H8.95253L9.12128 1.84697ZM12.1586 1.84697L12.3274 2.35791H12.8617L12.4258 2.67197L12.5945 3.18291L12.1586 2.86885L11.7274 3.18291L11.8915 2.67197L11.4555 2.35791H11.9993L12.1586 1.84697ZM15.2007 1.84697L15.3647 2.35791H15.9038L15.4678 2.67197L15.6319 3.18291L15.2007 2.86885L14.7648 3.18291L14.9288 2.67197L14.4976 2.35791H15.0319L15.2007 1.84697ZM1.51852 3.13604L1.68726 3.65635H2.22161L1.79038 3.97041L1.95444 4.48135L1.51852 4.1626L1.08729 4.48135L1.25135 3.96572L0.81543 3.65166H1.35915L1.51852 3.13604ZM4.56056 3.13604L4.72461 3.65166H5.26365L4.82773 3.96572L4.99179 4.47666L4.56056 4.15791L4.12464 4.47666L4.2887 3.96104L3.85747 3.64697H4.39182L4.56056 3.13604ZM7.59791 3.13604L7.76665 3.65166H8.29632L7.86509 3.96572L8.02914 4.47666L7.59323 4.15791L7.162 4.47666L7.32605 3.96104L6.89013 3.64697H7.42917L7.59791 3.13604ZM10.64 3.13604L10.804 3.65166H11.343L10.9071 3.96572L11.0759 4.47666L10.64 4.15791L10.204 4.47666L10.3728 3.96104L9.93686 3.64697H10.4712L10.64 3.13604ZM13.6773 3.13604L13.846 3.65166H14.3804L13.9492 3.96572L14.1132 4.47666L13.6773 4.15791L13.2461 4.47666L13.4101 3.96104L12.9789 3.64697H13.5132L13.6773 3.13604ZM16.7193 3.13604L16.8834 3.65166H17.4224L16.9865 3.96572L17.1553 4.47666L16.7193 4.15791L16.2834 4.47666L16.4522 3.96104L16.0163 3.64697H16.5553L16.7193 3.13604ZM3.04188 4.42979L3.20594 4.94072H3.74497L3.30906 5.25479L3.47311 5.77041L3.04188 5.45166L2.60597 5.76572L2.77002 5.25479L2.33879 4.94072H2.87314L3.04188 4.42979ZM6.07924 4.42979L6.24798 4.94072H6.78233L6.34641 5.25479L6.51515 5.77041L6.07924 5.45166L5.64332 5.76572L5.81206 5.25479L5.37614 4.94072H5.91518L6.07924 4.42979ZM9.12128 4.42979L9.28533 4.94072H9.82437L9.38845 5.25479L9.5525 5.77041L9.12128 5.45166L8.68536 5.76572L8.84941 5.25479L8.41818 4.94072H8.95253L9.12128 4.42979ZM12.1586 4.42979L12.3274 4.94072H12.8617L12.4305 5.25479L12.5945 5.77041L12.1586 5.45166L11.7274 5.76572L11.8915 5.25479L11.4555 4.94072H11.9993L12.1586 4.42979ZM15.2007 4.42979L15.3647 4.94072H15.9038L15.4678 5.25479L15.6319 5.77041L15.2007 5.45166L14.7648 5.76572L14.9288 5.25479L14.4976 4.94072H15.0319L15.2007 4.42979ZM1.51852 5.72354L1.68726 6.23447H2.22161L1.79038 6.54853L1.95444 7.06416L1.51852 6.74541L1.08729 7.05947L1.25135 6.54853L0.81543 6.23447H1.35915L1.51852 5.72354ZM4.56056 5.72354L4.72461 6.23447H5.26365L4.82773 6.54853L4.99179 7.05947L4.56056 6.74541L4.12464 7.05947L4.2887 6.54853L3.85747 6.23447H4.39182L4.56056 5.72354ZM7.59791 5.72354L7.76665 6.23447H8.29632L7.86509 6.54853L8.02914 7.06416L7.59323 6.74541L7.162 7.05947L7.32605 6.54853L6.89013 6.23447H7.42917L7.59791 5.72354ZM10.64 5.72354L10.804 6.23447H11.343L10.9071 6.54853L11.0759 7.06416L10.64 6.74541L10.204 7.05947L10.3728 6.54853L9.93686 6.23447H10.4712L10.64 5.72354ZM13.6773 5.72354L13.846 6.23447H14.3804L13.9492 6.54853L14.1132 7.06416L13.6773 6.74541L13.2461 7.05947L13.4101 6.54853L12.9789 6.23447H13.5132L13.6773 5.72354ZM16.7193 5.72354L16.8834 6.23447H17.4224L16.9865 6.54853L17.1553 7.06416L16.7193 6.74541L16.2834 7.05947L16.4522 6.54853L16.0163 6.23447H16.5553L16.7193 5.72354ZM3.04188 7.01728L3.20594 7.52822H3.74497L3.30906 7.84229L3.47311 8.35322L3.04188 8.03447L2.60597 8.35322L2.77002 7.8376L2.33879 7.52353H2.87314L3.04188 7.01728ZM6.07924 7.01728L6.24798 7.52822H6.78233L6.34641 7.84229L6.51515 8.35322L6.07924 8.03447L5.64332 8.35322L5.81206 7.8376L5.37614 7.52353H5.91518L6.07924 7.01728ZM9.12128 7.01728L9.28533 7.52822H9.82437L9.38845 7.84229L9.5525 8.35322L9.12128 8.03447L8.68536 8.35322L8.84941 7.8376L8.41818 7.52353H8.95253L9.12128 7.01728ZM12.1586 7.01728L12.3274 7.52822H12.8617L12.4305 7.84229L12.5945 8.35322L12.1586 8.03447L11.7274 8.35322L11.8915 7.8376L11.4555 7.52353H11.9993L12.1586 7.01728ZM15.2007 7.01728L15.3647 7.52822H15.9038L15.4678 7.84229L15.6319 8.35322L15.2007 8.03447L14.7648 8.35322L14.9288 7.8376L14.4976 7.52353H15.0319L15.2007 7.01728ZM1.51852 8.30635L1.68726 8.82197H2.22161L1.79038 9.13603L1.95444 9.64228L1.51852 9.32822L1.08729 9.64228L1.25135 9.13135L0.81543 8.81729H1.35915L1.51852 8.30635ZM4.56056 8.30635L4.72461 8.82197H5.26365L4.82773 9.13603L4.99648 9.64228L4.56056 9.32822L4.12464 9.64228L4.29339 9.13135L3.85747 8.81729H4.39182L4.56056 8.30635ZM7.59791 8.30635L7.76665 8.82197H8.29632L7.86509 9.13603L8.02914 9.64228L7.59323 9.32822L7.162 9.64228L7.32605 9.13135L6.89013 8.81729H7.42917L7.59791 8.30635ZM10.64 8.30635L10.804 8.82197H11.343L10.9071 9.13603L11.0759 9.64228L10.64 9.32822L10.204 9.64228L10.3728 9.13135L9.93686 8.81729H10.4712L10.64 8.30635ZM13.6773 8.30635L13.846 8.82197H14.3804L13.9492 9.13603L14.1132 9.64228L13.6773 9.32822L13.2461 9.64228L13.4101 9.13135L12.9789 8.81729H13.5132L13.6773 8.30635ZM16.7193 8.30635L16.8834 8.82197H17.4224L16.9865 9.13603L17.1553 9.64228L16.7193 9.32822L16.2834 9.64228L16.4522 9.13135L16.0163 8.81729H16.5553L16.7193 8.30635ZM3.04188 9.6001L3.20594 10.111H3.74497L3.30906 10.4251L3.47311 10.9407L3.04188 10.622L2.60597 10.936L2.77002 10.4251L2.33879 10.111H2.87314L3.04188 9.6001ZM6.07924 9.6001L6.24798 10.111H6.78233L6.34641 10.4251L6.51515 10.9407L6.07924 10.622L5.64332 10.936L5.81206 10.4251L5.37614 10.111H5.91518L6.07924 9.6001ZM9.12128 9.6001L9.28533 10.111H9.82437L9.38845 10.4251L9.5525 10.9407L9.12128 10.622L8.68536 10.936L8.84941 10.4251L8.41818 10.111H8.95253L9.12128 9.6001ZM12.1586 9.6001L12.3274 10.111H12.8617L12.4305 10.4251L12.5945 10.9407L12.1586 10.622L11.7274 10.936L11.8915 10.4251L11.4555 10.111H11.9993L12.1586 9.6001ZM15.2007 9.6001L15.3647 10.111H15.9038L15.4678 10.4251L15.6319 10.9407L15.2007 10.622L14.7648 10.936L14.9288 10.4251L14.4976 10.111H15.0319L15.2007 9.6001ZM1.51852 10.8938L1.68726 11.4048H2.22161L1.79038 11.7188L1.95444 12.2298L1.51852 11.9157L1.08729 12.2298L1.25135 11.7142L0.81543 11.4001H1.35915L1.51852 10.8938ZM4.56056 10.8938L4.72461 11.4048H5.26365L4.82773 11.7188L4.99648 12.2298L4.56056 11.9157L4.12464 12.2298L4.29339 11.7142L3.85747 11.4001H4.39182L4.56056 10.8938ZM7.59791 10.8938L7.76665 11.4048H8.29632L7.87446 11.7188L8.03852 12.2298L7.6026 11.9157L7.17137 12.2298L7.33542 11.7142L6.89951 11.4001H7.43854L7.59791 10.8938ZM10.64 10.8938L10.804 11.4048H11.343L10.9071 11.7188L11.0759 12.2298L10.64 11.9157L10.204 12.2298L10.3728 11.7142L9.93686 11.4001H10.4712L10.64 10.8938ZM13.6773 10.8938L13.846 11.4048H14.3804L13.9492 11.7188L14.1132 12.2298L13.6773 11.9157L13.2461 12.2298L13.4101 11.7142L12.9789 11.4001H13.5132L13.6773 10.8938ZM16.7193 10.8938L16.8834 11.4048H17.4224L16.9865 11.7188L17.1553 12.2298L16.7193 11.9157L16.2834 12.2298L16.4522 11.7142L16.0163 11.4001H16.5553L16.7193 10.8938Z" fill="white"/>
</g>
</g>
<defs>
<clipPath id="clip0_3009_236">
<rect width="24" height="24" rx="12" fill="white"/>
</clipPath>
</defs>
</svg>
