<svg width="64" height="64" viewBox="0 0 64 64" fill="none" xmlns="http://www.w3.org/2000/svg">
<g clip-path="url(#clip0_47_16215)">
<path d="M54.6015 9.3985C48.5409 3.33775 40.5141 0 32 0C23.4859 0 15.4591 3.33775 9.3985 9.3985C3.33775 15.4591 0 23.4859 0 32C0 40.5141 3.33775 48.5409 9.3985 54.6015C15.4591 60.6623 23.4859 64 32 64C40.5141 64 48.5409 60.6623 54.6015 54.6015C60.6623 48.5409 64 40.5141 64 32C64 23.4859 60.6623 15.4591 54.6015 9.3985ZM32 60.25C16.4229 60.25 3.75 47.5771 3.75 32C3.75 16.4229 16.4229 3.75 32 3.75C47.5771 3.75 60.25 16.4229 60.25 32C60.25 47.5771 47.5771 60.25 32 60.25Z" fill="url(#paint0_linear_47_16215)"/>
<path d="M32 7.625C18.5596 7.625 7.625 18.5596 7.625 32C7.625 45.4404 18.5596 56.375 32 56.375C45.4404 56.375 56.375 45.4404 56.375 32C56.375 18.5596 45.4404 7.625 32 7.625ZM32 52.625C20.6274 52.625 11.375 43.3726 11.375 32C11.375 20.6274 20.6274 11.375 32 11.375C43.3726 11.375 52.625 20.6274 52.625 32C52.625 43.3726 43.3726 52.625 32 52.625Z" fill="url(#paint1_linear_47_16215)"/>
<path d="M37.625 26.3561C37.625 27.3916 38.4645 28.2311 39.5 28.2311C40.5355 28.2311 41.375 27.3916 41.375 26.3561C41.375 24.2796 40.301 22.2831 38.4282 20.8786C37.1491 19.9192 35.5752 19.2783 33.875 19.0057V16.981C33.875 15.9455 33.0355 15.106 32 15.106C30.9645 15.106 30.125 15.9455 30.125 16.981V19.0057C28.4246 19.2783 26.8508 19.9192 25.5718 20.8786C23.699 22.2831 22.625 24.2796 22.625 26.3561C22.625 28.4326 23.699 30.429 25.5718 31.8336C26.8509 32.793 28.4247 33.4338 30.125 33.7065V41.1326C27.965 40.6047 26.375 39.203 26.375 37.6061C26.375 36.5706 25.5355 35.7311 24.5 35.7311C23.4645 35.7311 22.625 36.5706 22.625 37.6061C22.625 39.6826 23.699 41.679 25.5718 43.0836C26.8509 44.043 28.4247 44.6838 30.125 44.9565V47.0001C30.125 48.0356 30.9645 48.8751 32 48.8751C33.0355 48.8751 33.875 48.0356 33.875 47.0001V44.9565C35.5754 44.6838 37.1492 44.043 38.4282 43.0836C40.301 41.6791 41.375 39.6826 41.375 37.6061C41.375 35.5296 40.301 33.5331 38.4282 32.1286C37.1491 31.1692 35.5752 30.5283 33.875 30.2557V22.8296C36.035 23.3576 37.625 24.7592 37.625 26.3561ZM26.375 26.3561C26.375 24.7592 27.965 23.3575 30.125 22.8296V29.8825C27.965 29.3547 26.375 27.953 26.375 26.3561ZM37.625 37.6061C37.625 39.203 36.035 40.6047 33.875 41.1326V34.0797C36.035 34.6076 37.625 36.0092 37.625 37.6061Z" fill="url(#paint2_linear_47_16215)"/>
</g>
<defs>
<linearGradient id="paint0_linear_47_16215" x1="64" y1="32" x2="0" y2="32" gradientUnits="userSpaceOnUse">
<stop stop-color="#FBAC46"/>
<stop offset="1" stop-color="#FB273E"/>
</linearGradient>
<linearGradient id="paint1_linear_47_16215" x1="56.375" y1="32" x2="7.625" y2="32" gradientUnits="userSpaceOnUse">
<stop stop-color="#FBAC46"/>
<stop offset="1" stop-color="#FB273E"/>
</linearGradient>
<linearGradient id="paint2_linear_47_16215" x1="41.375" y1="31.9905" x2="22.625" y2="31.9905" gradientUnits="userSpaceOnUse">
<stop stop-color="#FBAC46"/>
<stop offset="1" stop-color="#FB273E"/>
</linearGradient>
<clipPath id="clip0_47_16215">
<rect width="64" height="64" fill="white"/>
</clipPath>
</defs>
</svg>
