<svg width="64" height="64" viewBox="0 0 64 64" fill="none" xmlns="http://www.w3.org/2000/svg">
<path d="M62.125 30.125H59.6027C60.7619 27.8211 61.375 25.2613 61.375 22.6072C61.375 18.1327 59.6325 13.926 56.4686 10.762C53.3046 7.59797 49.0979 5.85547 44.6234 5.85547C40.1489 5.85547 35.9421 7.59797 32.7781 10.762L32 11.5401L31.2219 10.7621C28.0579 7.59809 23.8512 5.85559 19.3766 5.85559C14.902 5.85559 10.6954 7.59809 7.53137 10.762C4.3675 13.926 2.625 18.1327 2.625 22.6072C2.625 25.2612 3.23813 27.8211 4.39725 30.125H1.875C0.8395 30.125 0 30.9645 0 32C0 33.0355 0.8395 33.875 1.875 33.875H6.98075C7.15938 34.071 7.34275 34.2637 7.5315 34.4525L30.6742 57.5952C31.0404 57.9613 31.5203 58.1445 32 58.1445C32.4798 58.1445 32.9597 57.9615 33.3257 57.5952L56.4685 34.4525C56.6572 34.2637 56.8406 34.071 57.0192 33.875H62.125C63.1605 33.875 64 33.0355 64 32C64 30.9645 63.1605 30.125 62.125 30.125ZM6.375 22.6072C6.375 19.1343 7.72737 15.8693 10.1831 13.4136C12.6388 10.9578 15.9037 9.60547 19.3766 9.60547C22.8495 9.60547 26.1145 10.9578 28.5702 13.4136L30.6741 15.5175C31.4062 16.2497 32.5935 16.2497 33.3257 15.5175L35.4296 13.4136C37.8854 10.9578 41.1504 9.60547 44.6232 9.60547C48.0961 9.60547 51.3611 10.9578 53.8169 13.4136C56.2726 15.8693 57.625 19.1343 57.625 22.6072C57.625 25.3395 56.7874 27.9428 55.2345 30.125H45.4069L41.209 23.4967C40.8573 22.9413 40.241 22.6116 39.5832 22.6255C38.9261 22.6401 38.3246 22.9977 37.9979 23.5682L31.851 34.3008L23.9225 18.6526C23.5923 18.0007 22.9107 17.5991 22.1831 17.6262C21.4529 17.6522 20.8042 18.1002 20.5212 18.774L15.7539 30.125H8.7655C7.21263 27.9428 6.375 25.3396 6.375 22.6072ZM32 53.6177L12.2572 33.875H17C17.755 33.875 18.4364 33.4221 18.7288 32.7261L22.4093 23.963L30.0775 39.0975C30.389 39.7125 31.0129 40.1068 31.7021 40.1245C31.7183 40.1248 31.7342 40.1251 31.7502 40.1251C32.421 40.1251 33.0425 39.7661 33.3771 39.182L39.7057 28.132L42.791 33.0035C43.1348 33.546 43.7325 33.875 44.375 33.875H51.7427L32 53.6177Z" fill="url(#paint0_linear_47_16211)"/>
<defs>
<linearGradient id="paint0_linear_47_16211" x1="64" y1="32" x2="0" y2="32" gradientUnits="userSpaceOnUse">
<stop stop-color="#FBAC46"/>
<stop offset="1" stop-color="#FB273E"/>
</linearGradient>
</defs>
</svg>
