<svg width="144" height="90" viewBox="0 0 144 90" fill="none" xmlns="http://www.w3.org/2000/svg">
<g clip-path="url(#clip0_3009_274)">
<mask id="mask0_3009_274" style="mask-type:luminance" maskUnits="userSpaceOnUse" x="0" y="0" width="144" height="91">
<path d="M0 8.39233e-05H144V90.3262H0V8.39233e-05Z" fill="white"/>
</mask>
<g mask="url(#mask0_3009_274)">
<path d="M68.6724 62.9863L58.9484 67.6721L55.9435 65.388L56.2878 69.2772L47.5208 73.1532L47.5274 73.2441L38.3226 77.3309L37.534 77.2785L36.1911 78.71L26.5915 83.1314L11.4024 84.2122L5.04841 79.4178L0 22.0073L5.63575 16.0223L19.2389 23.4871L24.769 27.5685L25.3618 28.1849L33.9815 32.9234L40.9787 27.5291L45.1814 30.6639L44.5786 23.8124L55.7104 15.2729L55.7038 15.1711L59.847 12.0117L68.6537 19.8782L68.7614 20.9463L75.6443 27.1222L81.3614 24.6545L82.7363 27.9315L83.3589 23.866L94.4906 18.9015L94.6238 20.3917L97.7275 17.0926L110.34 12.1594L112.304 13.6104L114.195 10.2784L125.391 5.54441L125.467 5.43222L137.543 0.189774L144 73.6773L127.424 75.1235L117.643 72.297L108.5 69.5346L108.301 67.2668L105.411 68.341L95.1968 65.7388L93.0058 64.0917L92.5021 64.5212L80.5455 60.8271L79.9461 59.5744L79.7228 60.4493L75.8863 59.5713L70.959 62.0254L70.695 60.7974L68.6724 62.9863Z" fill="#A32136"/>
</g>
<mask id="mask1_3009_274" style="mask-type:luminance" maskUnits="userSpaceOnUse" x="0" y="0" width="144" height="91">
<path d="M0 8.39233e-05H144V90.3262H0V8.39233e-05Z" fill="white"/>
</mask>
<g mask="url(#mask1_3009_274)">
<path d="M54.1917 61.5897L49.5668 58.0656L46.6333 24.7098L54.6756 18.542L57.5892 51.7239L60.7424 49.9917L57.7607 16.0763L59.747 14.5569L66.7553 20.8154L69.4864 51.8519L65.5477 56.1195L54.1917 61.5897ZM11.6488 81.9341L6.93261 78.3783L2.03711 22.7116L6.02512 18.4746L18.1755 25.14L22.8863 28.6179L24.1311 42.8063L15.7061 44.5608L14.5999 31.9997L11.2737 30.1395L14.9836 72.3804L18.0435 70.6514L17.0426 59.2543L25.5115 57.4515L26.8402 72.5451L22.8519 76.7776L11.6488 81.9341ZM129.776 67.4476L120.965 64.8265L116.282 11.5273L124.553 8.02948L126.99 35.7335L130.084 35.4629L127.554 6.66895L135.822 3.07611L141.787 71.0002L132.983 68.4528L130.752 43.0558L127.656 43.3252L129.776 67.4476ZM102.493 59.5388L97.7749 55.9826L94.878 22.9885L98.8605 18.7539L110.042 14.3834L114.753 17.8605L115.847 30.3042L107.421 32.0617L106.523 21.8865L103.488 23.3284L106.225 54.4821L109.534 55.5655L108.62 45.1899L117.087 43.3876L118.403 58.338L114.413 62.5698L102.493 59.5388ZM36.8523 69.9896L28.5504 73.6729L24.7174 30.0678L34.1609 35.2616L40.9986 29.9939L45.6656 33.4774L46.9645 48.2403L43.7386 51.7547L47.4628 54.4979L48.3701 64.7672L40.1089 68.4209L38.9606 55.3622L35.6876 56.7573L36.8523 69.9896ZM35.0871 49.9189L38.3732 48.6821L37.819 42.3561L34.3314 41.3548L35.0871 49.9189ZM79.0761 51.87L75.9801 51.1611L71.4552 53.4149L68.8441 23.6569L75.2662 29.4223L80.3135 27.2434L85.6523 40.0042L86.8742 42.9698L87.2339 43.8764L88.0323 45.6886L87.7233 44.2433L87.4086 42.7979L86.729 39.707L85.4412 25.083L92.7717 21.8179L95.8657 57.0003L83.766 53.2591L79.5776 44.5045C79.4667 44.2691 79.3522 44.0325 78.2963 41.4233L77.6528 39.8427L77.0073 38.2223L77.3647 39.6642L77.7585 41.5536C78.3711 44.3242 78.4338 44.5608 78.4581 44.8072L79.0761 51.87Z" fill="white"/>
</g>
<mask id="mask2_3009_274" style="mask-type:luminance" maskUnits="userSpaceOnUse" x="0" y="0" width="144" height="91">
<path d="M0 8.39233e-05H144V90.3262H0V8.39233e-05Z" fill="white"/>
</mask>
<g mask="url(#mask2_3009_274)">
<path d="M57.147 14.1627L54.8086 16.5085C54.8086 16.5085 53.4185 20.0075 51.7819 22.0134C52.9829 24.7989 54.6393 28.4282 55.0253 34.0545C55.0451 39.3813 51.1264 41.7167 47.8334 41.0067C44.1916 40.2128 42.466 37.0375 41.6069 35.2944C40.7492 33.5541 40.6753 36.9719 36.8534 37.8549C33.2426 38.6143 29.3391 36.0746 28.8133 30.066C28.2864 24.0577 34.813 21.1626 37.8202 23.4598C36.9193 21.2108 39.8649 17.4635 41.1175 15.7245C42.3669 13.9869 44.283 9.16339 48.9001 8.52666C53.5207 7.89219 55.5499 11.9729 57.147 14.1627ZM71.5411 0.0381241C78.9684 -0.610138 79.8902 7.22356 79.8902 7.22356C79.8902 7.22356 80.2828 3.6995 86.7379 2.6692C93.195 1.64228 96.4321 9.16113 97.3119 11.179C98.1884 13.1987 99.0398 16.5655 99.0398 16.5655L97.4593 17.4771L93.5415 21.7906C94.5412 32.1547 93.2854 35.6048 88.2623 36.8169C83.9618 37.8588 81.1703 35.0791 79.5392 30.5069C79.591 33.7615 78.5294 37.6654 74.7152 38.6636C69.934 39.9151 66.9335 36.253 65.9251 33.2628C63.5526 26.2235 62.5506 25.4969 62.147 20.8767C60.7579 2.37085 67.3647 0.401161 71.5411 0.0381241ZM56.2275 69.1898L55.9228 65.4881C55.9228 65.4881 54.9001 63.8819 54.7604 62.7168C54.5634 61.0597 54.8647 59.38 55.9526 58.6098C58.3612 56.9123 62.0316 57.3294 66.3584 55.8462C70.0792 54.5658 73.6187 51.858 78.3218 51.3577C83.3327 50.8298 88.4492 54.9693 95.6984 58.473C98.5536 59.8498 100.715 60.8374 102.453 63.6587C104.184 66.4605 104.372 67.3058 104.052 71.9389C102.656 85.3306 90.6182 89.4038 85.5137 89.8476C80.4091 90.2916 74.7393 89.6239 74.7393 89.6239C74.7393 89.6239 66.5926 90.0978 60.8206 88.2758C55.0474 86.4475 51.639 79.5269 50.0628 77.5708C49.228 76.5344 46.2297 73.7195 46.2297 73.7195L56.2275 69.1898Z" fill="#A32136"/>
</g>
<mask id="mask3_3009_274" style="mask-type:luminance" maskUnits="userSpaceOnUse" x="0" y="0" width="144" height="91">
<path d="M0 8.39233e-05H144V90.3262H0V8.39233e-05Z" fill="white"/>
</mask>
<g mask="url(#mask3_3009_274)">
<path d="M55.9952 65.8146C56.4416 66.4918 57.0765 67.1779 57.9871 67.7395C61.3592 69.5604 64.6501 69.5583 66.1776 69.5905C66.3724 69.8822 66.8695 70.4593 67.3085 70.5852C66.7629 70.4507 66.1029 70.2487 66.0997 70.2075C66.0281 70.231 66.6914 71.1591 67.3039 71.3857C66.6859 71.2197 65.9711 71.0894 65.9654 71.0774C65.9413 71.0874 66.864 72.0618 67.4448 72.238C66.7959 72.0496 65.9522 71.8992 65.9457 71.8872C65.9216 71.8969 66.864 72.8897 67.4602 73.0675C66.8125 72.9195 65.937 72.7264 65.9347 72.7056C65.8929 72.7178 66.8079 73.7178 67.4557 73.8738C66.8145 73.7289 65.9906 73.5497 65.9863 73.5253C65.9545 73.5395 66.6298 74.2774 67.2292 74.5757C66.6232 74.4185 66.0238 74.2912 66.0193 74.2751C65.9995 74.2862 66.5803 74.868 67.1467 75.236C66.5659 75.0883 66.0193 74.9727 66.0172 74.9578C65.9906 74.9727 66.842 75.8211 67.4911 76.136C66.765 75.875 66.0447 75.5936 66.0468 75.5644C66.015 75.5836 66.5659 76.2072 67.1765 76.6664C66.5419 76.402 66.004 76.1464 66.0061 76.1206C65.9654 76.141 66.7089 77.0186 67.4493 77.5266C66.7311 77.2059 66.059 76.8591 66.0611 76.8356C66.0172 76.8526 66.765 77.7981 67.5075 78.3203C66.8002 77.9973 66.1501 77.6592 66.1547 77.6368C66.1152 77.6499 66.6739 78.3696 67.2996 78.9077C66.7254 78.6501 66.2206 78.4058 66.2249 78.39C66.1822 78.4027 67.0719 79.5691 67.8474 80.0089C67.0467 79.6623 66.2317 79.2692 66.2383 79.2434C66.1931 79.2611 67.1424 80.3981 67.9562 80.8734C67.1587 80.5277 66.3515 80.1357 66.356 80.1111C66.3142 80.1287 67.2008 81.2007 67.9992 81.6951C67.238 81.3803 66.4889 81.0238 66.4946 81.0003C66.4482 81.0145 67.238 81.9686 67.9969 82.4669C67.2942 82.1997 66.653 81.9462 66.6573 81.9249C66.6155 81.9462 67.7318 83.1156 68.5745 83.4994C67.7406 83.2416 66.9015 82.9464 66.9058 82.9217C66.864 82.9421 67.9772 84.0059 68.8549 84.3649C67.9497 84.0776 66.9202 83.6944 66.9224 83.6652C66.8872 83.6813 67.5768 84.383 68.3005 84.855C67.645 84.6655 66.9972 84.3929 67.0038 84.3649C66.9554 84.3748 67.513 85.0724 68.1564 85.4872L68.0562 85.5343C67.468 85.2436 66.8025 84.7564 66.8145 84.7159C66.7507 84.7159 66.9895 85.34 67.346 85.8371C66.8025 85.5273 66.2933 84.8917 66.3185 84.8478C66.2403 84.8188 66.3394 85.4703 66.6398 86.0149C66.1799 85.7091 65.6896 85.0115 65.7169 84.9683C65.6476 84.9278 65.6387 85.6182 65.8655 86.1601C65.441 85.7998 65.0361 85.0186 65.0725 84.9803C65.0195 84.9364 64.9296 85.5087 65.0339 86.0407C64.7489 85.5732 64.551 85.0914 64.5776 85.0724C64.5367 85.04 64.4763 85.4983 64.5258 86.0244C64.1627 85.5781 63.8955 85.1183 63.9219 85.0882C63.8503 85.0667 63.8714 85.6641 64.0507 86.2461C63.6415 85.7867 63.3314 85.1791 63.3764 85.1387C63.2973 85.1034 63.2621 85.6433 63.3886 86.1979C62.9628 85.6777 62.6131 85.1056 62.6406 85.0778C62.5834 85.0636 62.6131 85.6406 62.7801 86.2307C62.3964 85.6903 62.0424 85.04 62.0699 85.0115C62.0115 84.9919 61.9851 85.5759 62.094 86.154C61.7168 85.6232 61.4362 84.9683 61.478 84.931C61.4098 84.9032 61.3471 85.42 61.4121 85.9729C61.1106 85.4456 60.9007 84.9256 60.9293 84.9032C60.8775 84.8785 60.8202 85.4266 60.8941 86.0244C60.6014 85.4381 60.3969 84.8281 60.4276 84.81C60.3815 84.7795 60.299 85.2732 60.3176 85.8371C60.0395 85.2945 59.8623 84.763 59.8964 84.7406C59.8425 84.7159 59.7721 85.1823 59.805 85.7376C59.5103 85.1685 59.3145 84.6071 59.3465 84.5856C59.2981 84.5587 59.2322 85.0455 59.2718 85.6094C58.9528 84.9514 58.6899 84.2484 58.714 84.2334C58.681 84.2122 58.6031 84.7695 58.6317 85.3793C58.3566 84.729 58.1839 83.9905 58.2191 83.9724C58.1753 83.9423 58.0453 84.4142 58.0078 84.9706C57.8199 84.3502 57.7242 83.6752 57.7583 83.6609C57.7242 83.6236 57.5152 84.1384 57.4284 84.7202C57.2557 84.0441 57.1819 83.3187 57.2194 83.304C57.1753 83.2674 56.9619 83.7797 56.8542 84.3682C56.7256 83.6205 56.6782 82.7177 56.7091 82.7066C56.6804 82.6772 56.4187 83.1923 56.2603 83.7797C56.1383 82.9869 56.0556 81.9206 56.0885 81.9073C56.0633 81.8779 55.75 82.5142 55.5937 83.173C55.5092 82.3721 55.5092 81.2678 55.5378 81.2592C55.5201 81.2368 55.2835 81.6392 55.09 82.1405C55.0338 81.3846 55.0361 80.5327 55.0613 80.5223C55.0427 80.4965 54.7666 80.9684 54.5676 81.5329C54.5444 80.7232 54.6326 79.6019 54.6644 79.5976C54.6446 79.5691 54.3322 80.0324 54.0802 80.5843C54.0109 79.8173 54.2002 78.9123 54.2254 78.8969C54.2091 78.8476 53.9187 79.2149 53.681 79.7094C53.5776 78.927 53.768 77.9661 53.791 77.9503C53.7746 77.8955 53.3972 78.392 53.1543 78.9987C53.1312 78.1857 53.218 77.0668 53.2543 77.0645C53.2268 77.029 52.7769 77.6978 52.535 78.3866C52.5493 78.2821 52.5625 78.1738 52.5625 78.0512C52.5175 77.4708 52.7692 76.373 52.8167 76.373C52.8056 76.3249 52.3127 76.7487 52.0094 77.255C52.0269 77.1916 52.0444 77.1208 52.0544 77.0491C52.0962 76.5499 52.3327 75.5547 52.3657 75.5547C52.3614 75.5142 51.6727 76.0084 51.3866 76.5287C51.4144 76.4683 51.4407 76.402 51.4605 76.3292C51.5902 75.8042 51.8785 74.8413 51.9092 74.8413C51.9069 74.8028 51.3537 75.1539 50.9997 75.5793C51.1624 75.0175 51.4318 74.0858 51.488 74.0858C51.4693 74.0315 50.917 74.395 50.5587 74.8146C50.7059 74.2473 50.9502 73.3455 51.0017 73.3455C50.9797 73.291 50.4628 73.6495 50.1186 74.0632C50.2099 73.5821 50.1077 72.4104 50.1747 72.1057C51.9069 70.9044 56.2526 69.2937 56.2526 69.2937L55.9952 65.8146ZM81.4517 80.4101C81.4606 80.0383 81.2074 79.8419 81.2372 79.8675C81.2174 79.8675 81.1656 80.0887 80.9898 80.3531C81.0909 79.9797 80.8587 79.758 80.8918 79.7861C80.8664 79.7958 80.7796 79.9978 80.6092 80.2656C80.7092 79.891 80.576 79.6288 80.5706 79.6288C80.5597 79.632 80.4211 79.8342 80.1218 80.1088C80.3649 79.7465 80.2384 79.4438 80.2713 79.4716C80.2418 79.4481 80.0525 79.6858 79.6819 79.9326C80.0141 79.5927 79.9744 79.2445 79.9766 79.2758C79.9591 79.2692 79.7358 79.4931 79.2607 79.7356C79.6358 79.3913 79.5531 78.9966 79.5399 79.0333C79.5268 79.0502 79.3168 79.2534 78.8592 79.5178C79.243 79.2018 79.2607 78.8148 79.2739 78.7815C79.2212 78.7698 78.944 79.0113 78.4271 79.216L78.3357 79.1925C78.9483 79.0086 78.8999 78.5119 78.9099 78.5624C78.8933 78.5388 78.6075 78.7519 78.1685 78.8082C78.0531 78.8229 77.9451 78.8306 77.8231 78.8182C78.3314 78.6702 78.4534 78.2679 78.4159 78.2968C78.3918 78.3129 78.0949 78.4359 77.4657 78.454C77.8913 78.3034 77.9969 77.9804 77.9969 77.9804C77.9804 77.9661 77.6384 78.1118 77.0258 78.0948C77.4228 77.9661 77.5262 77.6499 77.5218 77.6499C77.5019 77.6334 77.2083 77.7768 76.7002 77.7214C77.0608 77.6196 77.1963 77.3574 77.1588 77.3767C77.1379 77.3864 76.8938 77.4334 76.3867 77.3169C76.7761 77.2484 76.9422 76.9994 76.9388 76.9971C76.9225 76.982 76.6266 77.0387 76.1359 76.9381L76.0888 76.856C76.4858 76.8214 76.6671 76.5533 76.6628 76.5499C76.6441 76.5334 76.3426 76.5992 75.8523 76.4201C76.2338 76.3572 76.3967 76.1152 76.3681 76.1283C76.3515 76.1283 76.104 76.1464 75.6851 76.0512L75.6521 75.9738C76.0666 75.9948 76.291 75.7687 76.2624 75.7999C76.2601 75.7741 75.95 75.772 75.5113 75.5578L75.4826 75.4669C75.8996 75.6049 76.1965 75.4414 76.1493 75.433C76.1195 75.433 75.8303 75.3301 75.3452 74.9087C75.7432 75.0756 76.0491 74.9388 76.005 74.9331C75.9775 74.9268 75.7003 74.7965 75.2704 74.3749C75.6673 74.5461 76.0127 74.423 75.9666 74.4131C75.9414 74.4061 75.6585 74.2462 75.2395 73.7146C75.6201 73.9745 75.9643 73.8849 75.9236 73.8657C75.8996 73.8591 75.6333 73.6753 75.2638 73.172C75.641 73.4398 76.0193 73.3681 75.9798 73.3522C75.9577 73.3423 75.7048 73.1337 75.3683 72.5965C75.7432 72.9553 76.1381 72.9026 76.1009 72.8779C76.0734 72.8666 75.8346 72.6639 75.5178 72.1301C75.8721 72.4877 76.2713 72.4215 76.2249 72.3957C76.2043 72.3869 75.9523 72.1783 75.6367 71.5877C76.0107 72.0202 76.4528 71.9879 76.4076 71.9566C76.3801 71.9462 76.1195 71.7108 75.7916 71.0774C76.0711 71.5889 76.5923 71.5943 76.5462 71.5581C76.5164 71.5461 76.2965 71.2959 76.0666 70.6603L76.0193 70.5436C76.3251 71.1256 76.7761 71.0829 76.7375 71.101C76.7584 71.084 76.5351 70.7556 76.3681 70.2996C76.3472 70.2464 76.3329 70.1883 76.3426 70.1064C76.566 70.6515 77.0808 70.7309 76.9972 70.7244C77.0345 70.6943 76.7123 70.4025 76.7123 69.7915C76.8498 70.1724 77.2401 70.3778 77.2424 70.3713C77.259 70.3679 77.0511 69.9026 77.1699 69.5167L77.2721 69.4694C77.2908 69.6952 77.3512 69.8976 77.4789 70.0236C77.7175 69.4853 78.1453 69.2161 78.712 69.1297C79.7985 69.0596 80.9964 69.3251 82.0081 69.8194C82.9168 70.2622 83.7393 70.9833 84.5631 71.7716L84.5654 71.5547C84.5654 71.4421 84.5565 71.3299 84.5499 71.2197C84.8294 71.4217 84.9867 71.481 84.9898 71.481C84.9867 71.4853 84.9669 71.2466 84.6499 70.8644C84.9778 71.0134 85.1539 71.0403 85.1539 71.0381C85.1539 71.0403 85.0769 70.7671 84.5731 70.4226C84.8699 70.4161 85.0041 70.2889 84.9987 70.3016C84.9898 70.2837 84.8294 70.12 84.407 70.0236C84.7017 69.9662 84.8567 69.7936 84.8567 69.7936C84.8403 69.7777 84.6038 69.7142 84.0044 69.5905C84.4741 69.5669 84.6567 69.2835 84.627 69.3048C84.5929 69.3014 84.3607 69.3294 83.7052 69.139C84.2453 69.1154 84.4014 68.7687 84.3882 68.8148C84.3718 68.7814 84.0901 68.8619 83.4896 68.7452C83.9351 68.6542 84.0837 68.3867 84.0769 68.3783C84.0494 68.3783 83.8283 68.4348 83.2862 68.3975C83.6481 68.2197 83.7174 67.93 83.7009 67.9603C83.6625 67.9696 83.4523 68.068 82.8143 68.1408C83.273 67.9202 83.3094 67.5267 83.3114 67.5737C83.2862 67.5502 83.042 67.7183 82.4392 67.8035C82.832 67.5737 82.8793 67.2688 82.8715 67.2666C82.8452 67.2731 82.6384 67.4122 82.0015 67.5425C82.4173 67.3279 82.4635 66.994 82.446 67.0239C82.4151 67.0376 82.2238 67.1489 81.631 67.2731C82.0061 67.0119 82.0038 66.6769 81.9895 66.7092C81.9586 66.7273 81.7882 66.8614 81.1943 67.0322C81.6012 66.7608 81.5694 66.4086 81.576 66.4534C81.5474 66.4378 81.3504 66.6248 80.7653 66.7968C81.0414 66.5276 81.0325 66.2537 81.0205 66.2537C81.0007 66.2663 80.85 66.4086 80.3561 66.5936C80.6862 66.3199 80.6719 66.0085 80.6596 66.0429C80.6321 66.061 80.4683 66.1989 79.9469 66.4054C80.2713 66.091 80.2198 65.7495 80.2341 65.7954C80.2023 65.7796 80.0141 65.9795 79.495 66.1711C80.0075 65.6651 80.4022 64.2905 80.1198 63.6369C79.8105 64.4487 79.3629 65.144 78.9374 65.4905C79.4102 64.7269 79.1178 64.3222 79.1519 64.3534C79.1178 64.3557 79.0287 64.6486 78.6613 65.201L78.592 65.312C79.1453 63.6943 78.6613 60.6466 77.9222 59.9393C78.0817 63.5875 77.259 64.8198 77.2106 64.868C77.2194 64.5801 77.0972 64.4217 77.0906 64.424C77.072 64.4487 77.0279 64.7076 76.7025 65.248C76.6728 65.3132 76.6375 65.3794 76.5969 65.4412C76.6441 65.0904 76.4901 64.8927 76.4835 64.8992C76.468 64.9239 76.4208 65.1813 76.0777 65.7606C76.1493 65.3794 75.9775 65.1632 75.9754 65.1664C75.9577 65.191 75.9127 65.4511 75.5849 65.9915C75.5487 66.0632 75.5113 66.1408 75.4442 66.2202C75.6367 65.7079 75.3858 65.4127 75.4001 65.448C75.3892 65.4778 75.3331 65.7167 75.0107 66.2405C74.9821 66.3358 74.9382 66.4278 74.8767 66.5038L74.7865 66.5455C75.0064 66.0888 74.8237 65.79 74.8162 65.7911C74.7996 65.8146 74.7203 66.0632 74.3311 66.5597C74.2827 66.6441 74.2189 66.7305 74.11 66.8203C74.4038 66.3435 74.2221 65.9969 74.2146 66.0085C74.1937 66.0297 74.1055 66.274 73.6908 66.752C73.637 66.8302 73.5688 66.9085 73.4941 66.9818C73.7799 66.5276 73.6184 66.1958 73.6118 66.1989C73.5897 66.2202 73.4941 66.4633 73.0596 66.9221C72.986 67.0272 72.8881 67.1263 72.7781 67.215C73.1619 66.6911 72.964 66.308 72.9585 66.31C72.9342 66.3315 72.8452 66.5767 72.4239 67.0442C72.3371 67.1756 72.216 67.2955 72.0674 67.4023C72.4755 66.8676 72.2501 66.4633 72.2546 66.5038C72.2369 66.5339 72.1378 66.7563 71.7266 67.215C71.6616 67.3426 71.565 67.4434 71.4374 67.5267C71.8675 67.0591 71.7189 66.6579 71.7123 66.6599C71.688 66.6814 71.5725 66.9146 71.0909 67.3267C71.0116 67.4188 70.915 67.502 70.8071 67.5758C71.0974 67.1664 70.9754 66.8449 70.9666 66.8504C70.9434 66.8676 70.828 67.1008 70.3463 67.5151C70.2881 67.5896 70.2088 67.6581 70.1263 67.7214C70.4706 67.3066 70.354 66.9583 70.3463 66.9605C70.322 66.9791 70.1945 67.2046 69.7006 67.6038C69.6467 67.6644 69.5819 67.7214 69.5104 67.7696C69.8875 67.3448 69.7655 66.9748 69.7555 66.9768C69.7337 66.996 69.606 67.2238 69.1132 67.6239C69.0419 67.699 68.9551 67.7719 68.8592 67.837C69.1761 67.4088 69.031 67.0239 69.031 67.0623C69.0132 67.0913 68.8769 67.2912 68.3995 67.6837C68.3423 67.7599 68.2753 67.825 68.1971 67.8775C68.5534 67.5032 68.4775 67.1306 68.4732 67.1306C68.4436 67.1455 68.2905 67.3575 67.7561 67.6947C67.6636 67.7719 67.5536 67.837 67.435 67.8956C67.7858 67.5425 67.7154 67.2003 67.7131 67.2003C67.6836 67.2172 67.5307 67.4292 66.9917 67.7662C66.9268 67.8228 66.8552 67.8709 66.7575 67.9157C67.1424 67.5694 67.0851 67.2161 67.0742 67.2172C67.051 67.2335 66.8872 67.4369 66.3394 67.7542C66.2603 67.8157 66.169 67.866 66.0393 67.9157C66.4121 67.5502 66.3437 67.2003 66.3296 67.2003C66.3076 67.2161 66.1547 67.4269 65.6157 67.7653C65.5564 67.8135 65.4892 67.8639 65.4176 67.9044L65.3133 67.901C65.7005 67.5298 65.6069 67.1609 65.6048 67.198C65.5828 67.2215 65.4222 67.4088 64.903 67.7375C64.8491 67.7943 64.7853 67.8413 64.7237 67.8775C65.0748 67.5638 65.047 67.2003 65.0382 67.2003C65.0098 67.21 64.8305 67.4023 64.2595 67.6723C64.1607 67.7375 64.0439 67.79 63.9187 67.8325C64.3079 67.5222 64.2784 67.1779 64.2738 67.1779C64.2443 67.1915 64.065 67.3799 63.492 67.6497C63.4138 67.7049 63.3182 67.7495 63.2223 67.7845C63.6667 67.4851 63.6504 67.117 63.6458 67.117C63.6183 67.1286 63.4282 67.3136 62.8474 67.5599C62.7208 67.6366 62.5736 67.6891 62.4196 67.7296C62.8474 67.4247 62.8517 67.0356 62.8365 67.0666C62.8099 67.0815 62.6066 67.2539 61.9642 67.4937C61.8465 67.5599 61.7123 67.6038 61.5298 67.6366C61.9401 67.4122 62.0851 67.0734 62.0808 67.0711C62.051 67.0781 61.8179 67.215 61.1392 67.3267C61.0458 67.3405 60.9479 67.3493 60.8477 67.3514C60.9677 67.2819 61.0733 67.1844 61.1392 67.0591C59.5599 67.1374 58.4645 66.3561 57.9948 66.0085C56.4319 64.6957 55.585 62.9241 55.62 61.8488C55.6718 60.3722 56.7377 58.7785 58.3093 58.4659C59.8789 58.1508 65.4803 57.3114 67.8672 56.2202C70.2549 55.1314 74.8162 53.1101 77.0236 52.4664C79.0505 51.8767 81.688 52.0158 86.5571 54.9441C86.5571 54.9441 92.8473 58.3537 95.3177 59.429C96.2184 59.8214 96.9137 60.4604 97.4163 61.2218C97.1147 61.0917 96.9114 61.0852 96.9223 61.0988C96.9366 61.101 97.1411 61.4315 97.6394 61.9486C97.2645 61.7633 96.9982 61.7633 97.007 61.7699C97.0202 61.7771 97.1886 62.0404 97.5778 62.4521C97.2931 62.3989 97.105 62.4471 97.105 62.4498C97.1147 62.4708 97.3997 62.692 97.8936 63.103C97.4051 62.8726 97.0566 62.9476 97.0752 62.9388C97.0795 62.9562 97.3347 63.2109 97.8055 63.6145C97.3865 63.4946 97.0961 63.5875 97.0961 63.5898C97.1082 63.6111 97.4756 63.9117 98.1124 64.424C97.5405 64.0809 97.0872 64.1673 97.0872 64.165C97.0918 64.1885 97.3865 64.4767 97.9079 64.9804C97.4217 64.7674 97.0718 64.8714 97.0872 64.8637C97.0895 64.8829 97.3567 65.1879 97.8704 65.6C97.3535 65.403 97.0005 65.5274 97.0225 65.514C97.0257 65.5332 97.2645 65.7133 97.6769 66.0193C97.2886 65.9187 97.0136 66.0085 97.0136 66.0085C97.0202 66.0297 97.2393 66.3265 97.6669 66.7393C97.2479 66.5848 96.9564 66.6599 96.9741 66.6506C96.9741 66.6687 97.2588 66.9626 97.7934 67.3864C97.2886 67.1564 96.9268 67.2593 96.9498 67.2519C96.9521 67.2731 97.3063 67.5758 97.9123 68.0725C98.0045 68.1535 98.0936 68.2263 98.1774 68.3023C97.5185 67.7214 96.9389 67.8775 96.9741 67.8639C96.9718 67.8895 97.3458 68.1944 97.9211 68.7793C97.3283 68.3281 96.8355 68.4244 96.863 68.4124C96.863 68.4348 97.2038 68.7753 97.7639 69.3419L97.8386 69.4192C97.1952 68.9302 96.6814 69.0863 96.7035 69.0682C96.6969 69.0908 97.0225 69.4077 97.6207 69.92C97.0698 69.5604 96.6287 69.6825 96.654 69.6717C96.654 69.6891 96.9389 69.9573 97.4163 70.4025C96.9246 70.0876 96.5231 70.1724 96.5572 70.1593C96.5549 70.1828 96.8828 70.4699 97.3633 71.01C96.8091 70.6153 96.3581 70.6943 96.3856 70.6882C96.3856 70.7063 96.633 70.9483 97.0457 71.3814C96.5749 71.1245 96.2184 71.1994 96.2404 71.1908C96.2382 71.21 96.4988 71.4968 96.9652 71.9419C96.4724 71.6155 96.0391 71.7076 96.0391 71.7142C96.0514 71.7388 96.3515 72.0437 96.851 72.6103C96.3427 72.203 95.8885 72.2851 95.9214 72.2769C95.9194 72.3038 96.247 72.6809 96.7473 73.3554C96.2822 72.7614 95.7553 72.7583 95.7785 72.7583C95.7742 72.7691 95.9148 73.1111 96.2184 73.6133C95.861 73.3724 95.5574 73.3789 95.5574 73.3839C95.5574 73.4052 95.7917 73.8064 96.2316 74.4701C95.7937 73.932 95.3011 73.9308 95.3364 73.9243C95.3298 73.9478 95.5508 74.3414 95.8785 74.989C95.4959 74.45 95.036 74.3907 95.058 74.3907C95.0503 74.4083 95.1657 74.8336 95.4715 75.4522C95.0878 75.0175 94.6818 74.9847 94.6818 74.9847C94.6765 75.005 94.8095 75.3224 95.0692 75.8349C94.7567 75.5153 94.44 75.4823 94.4698 75.48C94.4586 75.5027 94.5852 75.8211 94.7776 76.3402C94.4652 75.9498 94.1242 75.894 94.143 75.894C94.1353 75.9098 94.2101 76.3292 94.4443 76.9277C94.1539 76.4493 93.7559 76.3615 93.7845 76.366C93.7756 76.3862 93.847 76.7395 94.0022 77.3081C93.7493 76.8182 93.373 76.7071 93.4028 76.7114C93.3917 76.7295 93.4544 77.0815 93.5414 77.642C93.3401 77.1609 92.999 77.0129 93.0168 77.0163C93.0059 77.0267 92.9793 77.3728 93.0365 77.9055C92.8538 77.5309 92.5844 77.3975 92.6041 77.4079C92.5955 77.4187 92.5735 77.7768 92.591 78.3439C92.4526 77.8293 92.127 77.6388 92.1522 77.6519C92.1368 77.6612 92.1181 77.9333 92.0872 78.3662C91.9641 77.9333 91.7057 77.7553 91.7201 77.761C91.7078 77.7707 91.6012 78.1299 91.5606 78.7026C91.4306 78.1738 91.0909 77.9749 91.115 77.9853C91.1009 78.0007 91.0491 78.345 90.9832 78.9123C90.9016 78.3966 90.6158 78.1803 90.6433 78.19C90.6233 78.2016 90.5958 78.5033 90.4827 79.0136C90.4827 78.528 90.2616 78.2679 90.277 78.281C90.2639 78.2821 90.1262 78.5119 89.981 78.9123C89.9612 78.5535 89.814 78.3506 89.814 78.3506C89.7985 78.3576 89.649 78.6368 89.3971 79.1066C89.4664 78.6309 89.2816 78.3506 89.3014 78.373C89.2816 78.3785 89.1473 78.6187 88.9176 79.0086C88.9572 78.5827 88.8031 78.3303 88.812 78.3439C88.8031 78.3439 88.6425 78.5427 88.4369 78.9057C88.4764 78.4741 88.3171 78.2185 88.3269 78.2382C88.3148 78.2455 88.1862 78.4359 87.9849 78.7793C88.0454 78.4027 87.9365 78.1769 87.9497 78.195C87.9343 78.195 87.7934 78.4314 87.5296 78.8148C87.7143 78.4027 87.6087 78.0948 87.6207 78.1206C87.6021 78.1183 87.4019 78.3149 87.0675 78.6128C87.2722 78.2274 87.1929 77.9213 87.1995 77.9415C87.1851 77.9372 86.9443 78.086 86.6055 78.3696C86.7662 78.0111 86.6926 77.7386 86.7001 77.7641C86.6814 77.7641 86.4637 77.9191 86.1338 78.1857C86.3142 77.8462 86.2624 77.5814 86.2713 77.606C86.2559 77.6038 86.082 77.7214 85.7917 77.9191C85.9128 77.6368 85.8721 77.4314 85.8785 77.4527C85.8653 77.4484 85.7278 77.5436 85.4936 77.6902C85.6156 77.3986 85.5706 77.1894 85.5806 77.2129C85.5674 77.2079 85.4374 77.2923 85.2186 77.4165C85.3034 77.167 85.2727 76.9883 85.2791 77.0109C85.2682 77.0086 85.1768 77.0699 85.0162 77.1778C85.1384 76.9627 85.1459 76.8024 85.1459 76.8109C85.1416 76.8067 85.0041 76.827 84.7819 76.8976C84.8974 76.7831 84.9526 76.7049 84.9526 76.7026C84.9546 76.7092 84.4443 76.5777 83.6811 76.9381C83.5436 76.9994 83.4282 77.0668 83.3257 77.1432C82.702 77.4954 82.1247 78.19 82.1831 79.5467C82.1742 79.5718 82.1742 80.0953 81.8398 80.3855C81.8586 80.076 81.6496 79.9125 81.6782 79.9326C81.6573 79.9371 81.6055 80.1511 81.4517 80.4101ZM60.982 65.327C60.9611 65.6072 65.8039 65.0499 66.3096 62.5742C66.7232 60.5672 64.9073 57.9257 64.6874 58.0318C64.8062 58.3324 65.7993 61.7206 64.7039 63.0193C63.9121 63.9587 61.004 65.0433 60.982 65.327ZM68.9042 70.0202C70.3342 69.706 70.7928 72.6809 70.7928 72.6809C70.7928 72.6809 71.1908 74.5287 72.029 78.6938C72.6868 82.1708 72.5736 83.5318 71.1865 81.886C69.803 80.2398 68.3225 71.481 68.9042 70.0202ZM36.9642 27.851C37.1271 27.9252 37.337 28.0306 37.5481 28.1473C37.1864 28.1111 36.9169 28.1451 36.9333 28.1677C36.9619 28.1304 37.3238 28.3258 37.7133 28.5733C37.459 28.6002 37.27 28.6642 37.282 28.6642C37.3007 28.6576 37.6537 28.9078 37.9475 29.1093C37.6328 29.077 37.4097 29.0813 37.4118 29.0856C37.4206 29.077 37.8321 29.3572 38.2531 29.6321C37.9123 29.6128 37.656 29.6398 37.6692 29.6398C37.6781 29.6375 37.9871 29.8089 38.3379 30.0207C38.0432 30.0444 37.8046 30.105 37.8089 30.1105C37.8178 30.105 38.1784 30.4022 38.4919 30.5895C38.1729 30.5533 37.9344 30.5533 37.9344 30.5579C37.9375 30.5533 38.2818 30.8189 38.6526 31.0786C38.2599 31.0286 37.9518 31.0358 37.9562 31.0335C37.9607 31.0335 38.2599 31.2509 38.5921 31.4841C38.2663 31.4896 37.9837 31.5357 37.9837 31.5357C37.9837 31.5357 38.3776 31.8777 38.7239 32.0781C38.3161 32.0392 37.9837 32.0344 37.9782 32.0311C37.9716 32.0344 38.3983 32.3618 38.8384 32.6153C38.3224 32.5337 37.8585 32.4608 37.8442 32.4427C37.8089 32.4574 38.4115 32.9799 38.9604 33.2548C38.392 33.0439 37.6781 32.8922 37.6781 32.8933C37.6781 32.8933 38.0807 33.35 38.4876 33.6904C37.9375 33.5022 37.3943 33.3038 37.3854 33.2891C37.3613 33.2891 37.6758 33.6976 38.0586 34.0528C37.5581 33.8892 37.0973 33.7479 37.0873 33.7354C37.0687 33.7397 37.469 34.2165 37.908 34.5719C37.3613 34.3771 36.7597 34.1502 36.7465 34.1394C36.7276 34.1367 37.0269 34.5619 37.39 34.9173C36.8387 34.7196 36.2316 34.5269 36.225 34.5205C36.2107 34.5171 36.5561 34.9731 36.9498 35.3231C36.3745 35.0672 35.6631 34.8094 35.6763 34.7537C35.6388 34.7739 35.8424 35.0822 36.1196 35.4029C35.6157 35.2287 35.0615 35.0509 35.0638 34.9847C35.0185 34.9978 35.1362 35.2156 35.3244 35.4565C34.8404 35.2649 34.3069 35.0788 34.2937 35.0521C34.2717 35.0521 34.4103 35.2973 34.6116 35.5606C34.1486 35.3744 33.5964 35.1636 33.5821 35.1439C33.5612 35.1412 33.6591 35.3335 33.8086 35.5633C33.3897 35.3635 32.8891 35.1412 32.8891 35.1204C32.8705 35.1204 32.908 35.2213 32.9805 35.369C30.4377 34.2177 29.0408 31.0636 29.2299 28.414C29.2299 28.414 29.3773 29.6171 29.959 29.9616C29.8986 28.512 30.6004 27.3896 31.0149 27.0442C30.3057 28.5635 31.1019 30.5703 31.1019 30.5703C32.1755 27.8714 35.4266 26.7481 36.7651 27.1553C35.4893 27.272 33.4424 27.8703 32.2657 29.6741C33.7405 28.4672 35.717 27.9184 36.9642 27.851ZM48.3643 9.23023C49.4599 8.7507 51.742 9.23566 52.6274 10.3288C51.1128 9.90089 49.9768 10.1183 49.4301 10.9601C49.3651 10.2167 49.8734 9.66338 49.957 9.59372C49.7096 9.3051 48.3643 9.23023 48.3643 9.23023ZM40.3782 24.5952C40.3782 24.5952 42.1203 22.2096 46.6881 21.7518C44.9493 20.7877 40.7016 22.2139 40.3782 24.5952ZM43.8868 34.5237C43.8868 34.5237 44.0529 32.0392 45.2483 30.9302C46.0931 30.1532 48.2532 29.2127 51.3471 31.4694C49.9195 29.0924 46.9301 27.9141 44.8414 29.5341C43.4765 30.5074 43.0696 33.0783 43.8868 34.5237ZM40.2142 22.7285C40.2142 22.7285 41.4186 21.0714 44.5928 20.7534C43.3852 20.0836 40.4375 21.0745 40.2142 22.7285ZM53.2454 31.7847C52.8474 31.7793 52.5734 31.8116 52.5824 31.8148C52.602 31.8116 53.031 32.141 53.5072 32.4932C53.031 32.5402 52.5802 32.6771 52.5802 32.6771C52.5802 32.6771 53.1146 33.229 53.5613 33.4999C52.9948 33.4891 52.5218 33.5312 52.524 33.5327C52.5263 33.5327 53.0035 33.9105 53.5424 34.25C52.9244 34.1815 52.4195 34.131 52.4086 34.1109C52.3745 34.1267 52.8431 34.5461 53.4181 34.9342C52.8792 34.8094 52.2898 34.7184 52.3127 34.7481C52.3502 34.7481 52.6154 35.259 53.0091 35.6951C52.547 35.4855 52.0544 35.2758 52.049 35.283C52.049 35.2758 52.3327 35.8501 52.7122 36.2602C52.2655 36.0417 51.6838 35.8277 51.6859 35.848C51.7036 35.8419 51.9619 36.4323 52.3127 36.8229C51.8202 36.6013 51.2637 36.3511 51.2614 36.3592C51.258 36.3511 51.5166 36.8826 51.8685 37.2921C51.3405 37.06 50.6993 36.8229 50.6993 36.8336C50.6993 36.8279 51.1228 37.5429 51.5902 37.943C50.992 37.6531 50.112 37.2649 50.122 37.2079C50.0747 37.221 50.309 37.6743 50.6312 38.0745C50.0129 37.839 49.3433 37.5802 49.3531 37.5051C49.2761 37.5298 49.6323 38.0713 50.0504 38.4802C49.4081 38.202 48.6162 37.8759 48.6031 37.8469C48.5656 37.8446 48.9273 38.4287 49.3531 38.8546C48.7614 38.5397 47.9023 38.067 47.8837 38.0435C47.8628 38.034 48.0246 38.4063 48.2675 38.7851C47.7351 38.5354 46.9281 38.1823 46.9281 38.1495C46.8915 38.1507 47.1346 38.6499 47.4581 39.048C46.8915 38.7999 45.9799 38.1742 45.9885 38.1342C45.9436 38.1303 46.1117 38.6182 46.3932 39.0611C46.1733 38.9647 45.9699 38.8596 45.8018 38.7419C42.7187 36.6146 42.3141 34.8467 40.8511 31.003C38.2995 24.3041 38.5062 22.065 38.7196 21.4021L38.7525 21.2274C38.701 21.1026 38.6855 20.9612 38.7098 20.8004C38.9066 19.9479 39.4839 19.153 40.2517 18.4792C41.5859 17.1203 43.5028 16.3609 45.0097 16.3073H45.0922C46.9708 15.8545 48.9648 15.0798 49.7425 12.5532C49.9032 14.3462 48.8571 16.1562 47.6308 16.6002C49.3388 16.0823 49.9416 15.629 50.378 14.3085C50.5816 15.5831 49.5312 16.8744 48.9714 17.2539C50.1495 16.8678 50.7334 16.1797 50.7334 16.1797C50.7334 16.1797 50.6355 17.239 49.7425 17.9814C51.2119 19.4679 49.3124 21.5208 49.4553 21.6823C49.4665 21.6724 49.8468 21.8608 50.254 22.0203C49.9075 22.2051 49.6666 22.4043 49.6753 22.4C49.6896 22.3946 50.1163 22.5489 50.5475 22.6782C50.2847 22.8911 50.0922 23.0908 50.0922 23.0908C50.0922 23.0908 50.4333 23.2005 50.8072 23.2858C50.4837 23.4977 50.2583 23.7205 50.2715 23.7233C50.2781 23.7097 50.6664 23.825 51.0788 23.9182C50.7136 24.1042 50.4628 24.315 50.5026 24.3419C50.5289 24.2905 50.9336 24.4339 51.3591 24.574C51.0613 24.7986 50.8488 25.0214 50.8611 25.0191C50.872 25.0125 51.3735 25.1648 51.842 25.2426C51.4362 25.445 51.1174 25.7122 51.1372 25.7198C51.1503 25.6952 51.5957 25.8951 52.0269 26.0386C51.6397 26.2525 51.3691 26.5262 51.3735 26.5104C51.3866 26.5158 51.7597 26.6429 52.1392 26.7606C51.9399 27.0005 51.797 27.2435 51.797 27.2435C51.797 27.2435 52.2094 27.3896 52.5756 27.4443C52.2457 27.6081 51.9962 27.7997 52.0071 27.8031C52.0181 27.7943 52.4843 28.0711 52.9178 28.2541C52.5129 28.3932 52.2028 28.5656 52.2105 28.571C52.2237 28.5635 52.6065 28.7807 53.0157 28.9734C52.5922 29.094 52.2809 29.2439 52.2832 29.2396C52.2975 29.2385 52.7122 29.4427 53.163 29.6452C52.7672 29.7832 52.4393 29.965 52.4393 29.965C52.4393 29.965 52.8033 30.2102 53.1939 30.4056C52.8319 30.4927 52.5515 30.6273 52.5647 30.6307C52.5802 30.6273 52.8649 30.8874 53.1664 31.1245C52.8474 31.0829 52.6108 31.1053 52.6154 31.1086C52.6231 31.1075 52.9178 31.4552 53.2454 31.7847ZM97.3513 15.2512L97.424 15.4822C97.424 15.4822 96.511 16.6269 95.0548 16.6998C93.8263 16.7052 93.4896 15.6459 93.4896 15.6459C94.4586 14.379 94.782 11.218 94.7161 9.60684C94.7161 9.60684 95.7158 11.4311 95.6851 12.3315C95.664 12.9178 95.808 13.3799 96.1041 13.565C95.8435 13.8283 95.6597 14.0637 95.6597 14.0637C95.6597 14.0637 95.9237 14.0861 96.2559 14.0961C95.9819 14.3836 95.7433 14.6715 95.6454 14.7914C95.5872 14.8642 95.8908 14.8565 96.2645 14.8061C96.0171 15.082 95.808 15.3614 95.7126 15.4799C95.6542 15.565 96.7948 15.5306 97.3513 15.2512ZM67.8208 31.53C67.9122 31.927 67.9497 29.2609 70.641 28.4321C72.9299 27.9503 74.8767 28.5579 76.8289 31.3866C75.7807 26.7425 72.0599 26.4353 70.7114 26.8241C69.7733 27.0956 66.9411 27.8479 67.8208 31.53ZM75.2352 22.4111C74.3806 22.3874 73.2157 22.8621 72.6152 24.0092C74.2827 23.8284 75.5178 24.2734 76.3967 25.1259C76.3251 25.2342 76.2822 25.3082 76.2822 25.3082C76.2822 25.3082 76.4571 25.369 76.6793 25.4285C76.7375 25.4912 76.7893 25.5595 76.8443 25.6301C76.6957 25.7133 76.5837 25.7938 76.4944 25.8678C76.5033 25.8621 76.8675 26.0718 77.2401 26.2378L77.3062 26.3532C77.0422 26.4475 76.8289 26.5554 76.7002 26.6359C76.7123 26.6248 77.1281 26.8623 77.5548 27.06C77.2996 27.1383 77.1061 27.2222 77.0115 27.2636C76.9675 27.2862 77.381 27.4914 77.8297 27.6945C77.4339 27.8347 77.1126 28.0105 77.1126 28.0105C77.1126 28.0105 77.4744 28.2584 77.8618 28.4545C77.59 28.5185 77.3655 28.6126 77.2381 28.6769C77.2481 28.6746 77.6241 29.0184 77.9706 29.2774C77.7186 29.2774 77.5153 29.2953 77.4185 29.3057C77.3678 29.3134 77.6614 29.6621 77.9947 29.9928C77.7186 29.9851 77.5019 30.0005 77.3976 30.0087C77.3469 30.0141 77.777 30.3471 78.2576 30.699C77.777 30.7418 77.3271 30.8809 77.3271 30.8809C77.3271 30.8809 77.8231 31.3921 78.2619 31.7038C77.8495 31.697 77.4955 31.7196 77.3469 31.7332L77.2721 31.7408C77.2765 31.7375 77.7154 32.0826 78.2257 32.445C77.8749 32.4088 77.5723 32.3765 77.381 32.3541L77.1699 32.2889L77.2567 32.3371C77.1963 32.3271 77.1588 32.3185 77.1544 32.3124C77.1192 32.3305 77.5823 32.7467 78.151 33.1358C77.7341 33.0367 77.2908 32.9627 77.1281 32.9485C77.1017 32.9519 77.3655 33.4665 77.7584 33.9012C77.4139 33.7467 77.0511 33.5886 76.887 33.5235L76.798 33.4891C76.798 33.4807 77.084 34.0573 77.4591 34.4678C77.0929 34.2882 76.6353 34.1109 76.434 34.0528C76.4494 34.0473 76.7123 34.6381 77.0588 35.0283C76.6957 34.8637 76.2922 34.6818 76.1084 34.602L76.0084 34.5642C76.0084 34.5572 76.2624 35.0887 76.6189 35.497C76.1974 35.3131 75.7157 35.1301 75.5299 35.0641L75.4442 35.0383C75.4442 35.0306 75.8412 35.6963 76.269 36.1168C75.9016 35.9387 75.4442 35.7325 75.1516 35.5891L74.8844 35.4029C74.8162 35.4264 75.0591 35.8793 75.377 36.2828C75.0548 36.1563 74.7149 36.0281 74.4674 35.9186L74.1144 35.6963L74.1673 35.7736C74.0232 35.7325 74.3807 36.276 74.7996 36.6856C74.3268 36.4825 73.7679 36.2504 73.5007 36.1283L73.4073 36.0878C73.3137 36.0496 73.6745 36.6325 74.1023 37.0579C73.6481 36.8155 73.0353 36.4825 72.7704 36.3276L72.6361 36.2482C72.6066 36.2389 72.7759 36.6123 73.019 36.9928C72.6361 36.8143 72.1226 36.5832 71.8575 36.4536L71.6759 36.3534C71.6407 36.3572 71.8795 36.8526 72.1994 37.2518C71.9783 37.152 71.6991 36.9928 71.4417 36.8356L70.7366 36.338C70.6971 36.3341 70.84 36.7546 71.0843 37.1686C67.0928 35.9691 66.236 30.7495 66.1381 30.1105C65.8368 28.1496 65.5673 26.9879 64.7337 24.9913C64.2288 23.7622 63.4545 22.0782 63.2498 20.0924C63.0189 17.8604 63.2477 16.443 63.5052 14.2861C63.6667 12.9529 63.7417 9.86131 64.0364 8.69099C64.7271 11.9102 64.1441 12.6464 64.9382 13.2293C65.5244 7.36776 67.1106 14.3227 71.0997 14.1963C71.7707 14.1431 72.8792 13.8699 73.3137 13.9339C73.4414 13.9515 73.5854 13.9762 73.7392 14.0649C73.4852 14.13 73.3159 14.1963 73.3225 14.1963C73.3389 14.1917 73.6954 14.4684 74.0671 14.7267C73.7504 14.8477 73.505 14.9775 73.505 14.9775C73.505 14.9775 73.8503 15.2343 74.2189 15.4394C73.8285 15.4867 73.5216 15.5874 73.5313 15.5946C73.5413 15.5874 73.8449 15.8791 74.1716 16.154C73.746 16.2198 73.4116 16.3498 73.4205 16.3498C73.4348 16.3478 73.7933 16.6238 74.165 16.8859C73.8503 17.0047 73.604 17.135 73.604 17.135C73.604 17.135 73.9528 17.3951 74.3268 17.5989C73.9626 17.6907 73.6931 17.8083 73.6997 17.8167C73.714 17.8072 74.0507 18.0723 74.4113 18.3143C74.0353 18.4243 73.7581 18.5656 73.7679 18.5634C73.7779 18.5591 74.1848 18.8131 74.594 19.0375C74.3223 19.1809 74.1232 19.3177 74.1232 19.3177C74.1232 19.3177 74.4531 19.5116 74.8162 19.6731C74.5336 19.8165 74.3466 19.9606 74.3466 19.9606C74.3695 19.9594 74.7621 20.1252 75.1682 20.2797C74.7392 20.3942 74.4322 20.5568 74.4563 20.5749C74.4838 20.5446 74.893 20.7418 75.3331 20.9515C74.9425 21.0533 74.6358 21.189 74.6435 21.1944C74.6501 21.189 75.0175 21.4541 75.4111 21.6792C75.0318 21.7375 74.7335 21.8404 74.7446 21.8531C74.7621 21.8404 75.0516 22.1121 75.3661 22.3731L75.2352 22.4111ZM84.6974 25.49C86.0886 25.2781 88.0211 25.8375 89.1155 26.6429C86.3967 22.491 80.9171 24.7119 81.3395 27.4423C81.3395 27.4423 82.7364 25.785 84.6974 25.49ZM85.432 34.6234L85.3154 34.6069C85.1253 34.5099 84.9085 34.388 84.7106 34.2624L84.023 33.7589C83.9781 33.7644 84.0439 33.9729 84.1651 34.24C82.3976 33.4239 81.3131 31.6352 80.7005 29.7472C80.0725 27.7931 79.9955 25.7714 79.7315 23.9126C79.2991 20.8594 78.5248 18.3937 78.5248 18.3937C78.3148 17.6606 77.6504 15.5907 79.9405 9.90519C80.796 12.4684 82.2369 14.3686 84.5545 14.0637C85.6092 13.9246 86.3779 14.102 86.9354 14.4014C87.0886 14.4842 87.2226 14.5706 87.3349 14.6616C87.2567 14.8007 87.1951 14.9174 87.1565 14.9857C87.127 15.0481 87.3656 15.0214 87.6648 14.9572L87.7484 15.0481C87.5889 15.2512 87.4449 15.4331 87.3469 15.5507L87.2017 15.657C87.204 15.7242 87.568 15.6952 87.9958 15.5978C87.7582 15.8545 87.5296 16.1053 87.4314 16.2198C87.3612 16.2942 87.6021 16.3189 87.9254 16.3096C87.6505 16.6269 87.4569 16.9665 87.4569 16.9665C87.4569 16.9665 87.7 16.9791 88.0047 16.9737C87.7791 17.2806 87.5866 17.5921 87.501 17.7235C87.4469 17.8052 87.7682 17.7794 88.1465 17.7C87.9661 18.0017 87.8188 18.3032 87.7582 18.4319C87.7186 18.5082 87.964 18.4747 88.2685 18.403C88.009 18.7699 87.8332 19.1607 87.8332 19.1607C87.8332 19.1607 88.0617 19.153 88.3489 19.1157C88.1708 19.4333 88.0211 19.7439 87.9529 19.8839L87.9177 19.9556C87.91 19.9639 88.1388 19.9232 88.428 19.838C88.2753 20.1675 88.1553 20.4987 88.1047 20.6412C88.074 20.7203 88.3598 20.6486 88.6966 20.5254L88.6834 20.6142C88.46 20.9481 88.3148 21.2756 88.3148 21.2756C88.3148 21.2756 88.416 21.2734 88.5677 21.2575C88.3776 22.1098 88.1256 22.5423 88.1256 22.5423C88.5259 22.5572 89.0285 21.9078 89.7985 22.3754C89.649 22.5692 89.5532 22.7395 89.5532 22.7395C89.5532 22.7395 89.9655 22.8834 90.3329 22.9361C90.0812 23.0614 89.8722 23.2087 89.7942 23.2711C89.7731 23.2924 90.2659 23.5771 90.6937 23.7407C90.377 23.8474 90.1153 23.9777 90.0142 24.0358C89.981 24.0551 90.3959 24.2905 90.8237 24.4898C90.574 24.5697 90.377 24.6491 90.2845 24.6918C90.2375 24.7153 90.6531 24.9216 91.0986 25.122C90.7049 25.2623 90.3782 25.4419 90.3782 25.4419C90.3782 25.4419 90.7421 25.6866 91.1327 25.8836C90.8621 25.9497 90.6322 26.044 90.5454 26.0845C90.5233 26.1069 90.8939 26.4475 91.2427 26.7031C90.9896 26.7031 90.784 26.7223 90.6906 26.7339C90.641 26.7425 90.9323 27.0913 91.2625 27.4197C90.9896 27.4176 90.773 27.4285 90.6674 27.4389C90.617 27.4423 91.0468 27.775 91.5265 28.1292C91.0468 28.1731 90.5938 28.3088 90.5938 28.3088C90.5938 28.3088 91.1327 28.8639 91.5837 29.1317C91.1491 29.1261 90.7685 29.1476 90.6158 29.1623C90.5454 29.1657 91.0259 29.5423 91.5606 29.8849C91.1866 29.8451 90.8555 29.8067 90.6531 29.7832L90.4409 29.718L90.5256 29.7662C90.4684 29.7585 90.4288 29.7508 90.4234 29.7415C90.3891 29.7585 90.8576 30.1801 91.4374 30.5703C91.0162 30.4719 90.5597 30.3921 90.3979 30.381C90.3704 30.381 90.6322 30.8933 91.0282 31.328C90.6806 31.176 90.3232 31.0166 90.1594 30.9514L90.0812 30.9055C90.07 30.9064 90.3507 31.4864 90.7301 31.8981C90.3661 31.7151 89.9051 31.5389 89.7567 31.4929C89.7183 31.4776 89.9855 32.0704 90.3298 32.4608C89.9655 32.2939 89.562 32.112 89.3761 32.0344L89.2937 31.9786C89.2759 31.984 89.5345 32.5178 89.8876 32.9261C89.4684 32.7445 88.9847 32.5583 88.7988 32.4932C88.7172 32.4608 89.1396 33.1769 89.6038 33.5771C89.2278 33.3936 88.735 33.1715 88.4248 33.0143L88.1531 32.832C88.0904 32.8578 88.3269 33.3084 88.6502 33.7096C88.3226 33.5864 87.9849 33.4549 87.7341 33.3466L87.3865 33.1276L87.4405 33.2016C87.2931 33.1661 87.6505 33.7074 88.0674 34.1147C87.5978 33.9105 87.0379 33.6752 86.775 33.5594L86.631 33.4699C86.5835 33.4807 86.9509 34.0638 87.3701 34.4882C86.9157 34.2434 86.3074 33.9127 86.0391 33.7589L85.9214 33.6646C85.8785 33.668 86.0436 34.0412 86.2888 34.4181C85.9105 34.2434 85.3902 34.0134 85.1252 33.8847L84.9592 33.7702C84.9085 33.7845 85.1296 34.2389 85.432 34.6234ZM92.2029 8.18681C93.2687 10.8167 92.6734 13.6242 92.2029 15.1133C92.2138 15.0054 92.2138 14.9857 92.1886 15.0126C92.105 15.434 91.3461 17.2603 90.387 17.7215C90.387 17.7215 91.2238 16.0954 91.0557 15.8251C90.8873 15.5507 90.1823 15.7604 90.1823 15.7604C91.1657 14.6672 91.3515 13.1915 91.3627 11.8339C91.1757 10.2517 91.6814 8.59351 92.2029 8.18681ZM75.783 13.8859C75.3661 13.1343 75.0471 11.5055 75.277 11.1364C75.5069 10.7654 74.8678 9.51162 74.8678 9.51162L75.7873 9.95564L75.2836 7.20672L76.4615 8.67403C76.4615 8.67403 76.1779 6.42817 75.6674 5.60098C77.0422 6.2678 77.4339 7.71429 77.3205 8.4277C77.204 9.13161 76.4208 11.2094 75.783 13.8859Z" fill="#EE7624"/>
</g>
</g>
<defs>
<clipPath id="clip0_3009_274">
<rect width="144" height="90" fill="white"/>
</clipPath>
</defs>
</svg>
