<svg width="17" height="14" viewBox="0 0 17 14" fill="none" xmlns="http://www.w3.org/2000/svg">
<path d="M11.3234 0.00305202V0H12.118L12.4084 0.0579885C12.6019 0.0956352 12.7777 0.144971 12.9356 0.206012C13.0935 0.267052 13.2463 0.338271 13.394 0.419653C13.5417 0.501036 13.6757 0.583959 13.7959 0.668393C13.9151 0.751821 14.0221 0.840329 14.1168 0.93392C14.2105 1.02853 14.3567 1.05295 14.5554 1.00717C14.754 0.961388 14.968 0.897799 15.1972 0.816417C15.4264 0.735034 15.6531 0.643474 15.8772 0.541734C16.1013 0.439995 16.2379 0.375399 16.2868 0.347931C16.3346 0.319455 16.3601 0.304195 16.3632 0.30215L16.3662 0.297572L16.3815 0.289942L16.3968 0.282312L16.4121 0.274682L16.4273 0.267052L16.4304 0.262474L16.435 0.259422L16.4396 0.25637L16.4426 0.251792L16.4579 0.247214L16.4732 0.244162L16.4701 0.267052L16.4655 0.289942L16.4579 0.312833L16.4503 0.335723L16.4426 0.350983L16.435 0.366243L16.4273 0.389133C16.4222 0.404393 16.4172 0.424735 16.4121 0.450174C16.407 0.475612 16.3586 0.577336 16.2669 0.755376C16.1752 0.933416 16.0606 1.11399 15.9231 1.29711C15.7855 1.48023 15.6623 1.61858 15.5533 1.71219C15.4432 1.8068 15.3704 1.87292 15.3347 1.91057C15.2991 1.94922 15.2558 1.98482 15.2048 2.01739L15.1284 2.06775L15.1131 2.07538L15.0979 2.08301L15.0948 2.08758L15.0902 2.09064L15.0856 2.09369L15.0826 2.09827L15.0673 2.1059L15.052 2.11353L15.049 2.11811L15.0444 2.12116L15.0398 2.12421L15.0367 2.12879L15.0337 2.13337L15.0291 2.13642L15.0245 2.13947L15.0215 2.14405H15.0979L15.5257 2.05249C15.811 1.99145 16.0835 1.91769 16.3433 1.83121L16.7559 1.69387L16.8017 1.67861L16.8246 1.67098L16.8399 1.66335L16.8552 1.65572L16.8705 1.64809L16.8858 1.64046L16.9163 1.63589L16.9469 1.63283V1.66335L16.9393 1.66641L16.9316 1.67098L16.9286 1.67556L16.924 1.67861L16.9194 1.68167L16.9163 1.68624L16.9133 1.69082L16.9087 1.69387L16.9041 1.69693L16.9011 1.7015L16.898 1.70608L16.8934 1.70913L16.8858 1.72439L16.8781 1.73965L16.8735 1.74271C16.8715 1.74576 16.8068 1.83222 16.6795 2.00213C16.5521 2.17304 16.4834 2.25951 16.4732 2.26155C16.463 2.2646 16.4487 2.27986 16.4304 2.30733C16.4131 2.33581 16.3051 2.44925 16.1064 2.64763C15.9078 2.84601 15.7132 3.02251 15.5227 3.17716C15.3312 3.33281 15.2344 3.52407 15.2324 3.75094C15.2293 3.97679 15.2176 4.23215 15.1972 4.517C15.1768 4.80186 15.1386 5.10959 15.0826 5.44023C15.0266 5.77088 14.94 6.14475 14.8228 6.56185C14.7057 6.97896 14.563 7.3859 14.3949 7.78266C14.2268 8.17943 14.0511 8.53549 13.8677 8.85087C13.6844 9.16625 13.5163 9.43331 13.3634 9.65203C13.2106 9.87075 13.0553 10.0768 12.8974 10.2701C12.7395 10.4634 12.5398 10.6811 12.2984 10.9232C12.0559 11.1643 11.9235 11.2966 11.901 11.32C11.8776 11.3423 11.7778 11.4258 11.6015 11.5702C11.4263 11.7157 11.2378 11.8612 11.0361 12.0067C10.8354 12.1511 10.651 12.2717 10.4829 12.3683C10.3148 12.465 10.1121 12.5753 9.87474 12.6995C9.6384 12.8246 9.38268 12.9406 9.10762 13.0474C8.83256 13.1542 8.54221 13.2534 8.23659 13.345C7.93096 13.4365 7.63553 13.5078 7.35028 13.5586C7.06504 13.6095 6.74158 13.6527 6.37992 13.6883L5.83743 13.7417V13.7494H4.84415V13.7417L4.71426 13.7341C4.62768 13.729 4.55636 13.7239 4.50033 13.7189C4.4443 13.7138 4.2329 13.6858 3.86615 13.6349C3.4994 13.5841 3.21161 13.5332 3.00276 13.4823C2.79393 13.4315 2.4832 13.3348 2.07061 13.1924C1.65801 13.05 1.30502 12.906 1.01162 12.7605C0.719242 12.616 0.535867 12.5245 0.461493 12.4858C0.388144 12.4482 0.305625 12.4014 0.213937 12.3454L0.0764062 12.2615L0.0733652 12.2569L0.0687656 12.2539L0.0641812 12.2508L0.061125 12.2463L0.0458437 12.2386L0.0305625 12.231L0.0275215 12.2264L0.0229219 12.2234L0.0183375 12.2203L0.0152812 12.2157L0.0122403 12.2112L0.00764062 12.2081H0V12.1776L0.0152812 12.1806L0.0305625 12.1852L0.0993281 12.1928C0.145172 12.1979 0.269974 12.2056 0.473718 12.2157C0.677478 12.2259 0.893953 12.2259 1.12317 12.2157C1.35239 12.2056 1.58671 12.1827 1.82611 12.1471C2.06552 12.1115 2.34822 12.0504 2.67422 11.9639C3.00023 11.8775 3.29974 11.7747 3.57277 11.6557C3.84478 11.5356 4.03833 11.4461 4.15346 11.3871C4.26755 11.3291 4.44175 11.2213 4.67606 11.0636L5.02753 10.8271L5.03058 10.8225L5.03517 10.8194L5.03977 10.8164L5.04281 10.8118L5.04587 10.8072L5.05045 10.8042L5.05505 10.8011L5.05809 10.7965L5.07337 10.792L5.08865 10.7889L5.09171 10.7736L5.09629 10.7584L5.10089 10.7553L5.10393 10.7508L4.98168 10.7431C4.90019 10.738 4.82123 10.7329 4.74483 10.7279C4.66842 10.7228 4.54872 10.6999 4.38572 10.6592C4.22273 10.6185 4.04699 10.5575 3.85851 10.4761C3.67005 10.3947 3.48667 10.298 3.30839 10.1861C3.13012 10.0742 3.00124 9.98113 2.92177 9.90687C2.84333 9.83361 2.74145 9.72986 2.61615 9.59557C2.49187 9.46027 2.38387 9.32139 2.29219 9.17896C2.2005 9.03654 2.11289 8.87222 2.02936 8.68606L1.90251 8.40833L1.89487 8.38544L1.88723 8.36255L1.88265 8.34729L1.87959 8.33203L1.90251 8.33508L1.92544 8.33966L2.09353 8.36255C2.2056 8.37781 2.38134 8.38289 2.62073 8.37781C2.86014 8.37273 3.02569 8.36255 3.11737 8.34729C3.20906 8.33203 3.2651 8.32185 3.28547 8.31677L3.31603 8.30914L3.35423 8.30151L3.39244 8.29388L3.39549 8.2893L3.40008 8.28625L3.40468 8.2832L3.40772 8.27862L3.37715 8.27099L3.34659 8.26336L3.31603 8.25573L3.28547 8.2481L3.2549 8.24047C3.23453 8.23539 3.19888 8.22521 3.14794 8.20995C3.097 8.19469 2.95947 8.13873 2.73534 8.04209C2.51123 7.94544 2.33294 7.85133 2.2005 7.75977C2.06773 7.66795 1.94113 7.56752 1.82152 7.45915C1.70233 7.34928 1.57143 7.20786 1.4288 7.03492C1.28618 6.86197 1.15884 6.66104 1.04676 6.43214C0.934708 6.20324 0.850661 5.98452 0.794625 5.77596C0.738814 5.56862 0.701992 5.35665 0.684615 5.14266L0.657093 4.8222L0.672375 4.82525L0.687656 4.82983L0.702937 4.83746L0.718218 4.84509L0.7335 4.85272L0.748781 4.86035L0.98564 4.96717C1.14356 5.03839 1.33966 5.09943 1.57397 5.15029C1.80829 5.20115 1.94836 5.22914 1.9942 5.23422L2.06297 5.24185H2.2005L2.19746 5.23728L2.19286 5.23422L2.18827 5.23117L2.18522 5.22659L2.18218 5.22201L2.17758 5.21896L2.17299 5.21591L2.16994 5.21133L2.15465 5.2037L2.13937 5.19607L2.13633 5.19149L2.13173 5.18844L2.12715 5.18539L2.12409 5.18081L2.10881 5.17318L2.09353 5.16555L2.09049 5.16097C2.08743 5.15893 2.04362 5.12638 1.95905 5.06331C1.87551 4.99922 1.78791 4.91631 1.69622 4.81457C1.60453 4.71283 1.51284 4.60601 1.42116 4.49411C1.3293 4.38195 1.24748 4.26195 1.17666 4.13549C1.10535 4.00833 1.02996 3.84656 0.950493 3.65022C0.872055 3.45489 0.812458 3.25804 0.771703 3.05965C0.730963 2.86127 0.708041 2.66544 0.702937 2.47214C0.697848 2.27884 0.702937 2.11353 0.718218 1.97619C0.7335 1.83885 0.764062 1.6837 0.809906 1.51075C0.855749 1.33781 0.921978 1.15469 1.00856 0.961388L1.13845 0.671445L1.14609 0.648555L1.15373 0.625665L1.15833 0.622613L1.16137 0.618035L1.16443 0.613457L1.16901 0.610405L1.17361 0.613457L1.17666 0.618035L1.17971 0.622613L1.1843 0.625665L1.1889 0.628717L1.19194 0.633295L1.19499 0.637873L1.19958 0.640925L1.20722 0.656185L1.21486 0.671445L1.21946 0.674498L1.2225 0.679076L1.4288 0.907977C1.56633 1.06058 1.72933 1.23099 1.9178 1.41919C2.10627 1.60739 2.21069 1.70506 2.23106 1.71219C2.25145 1.72032 2.2769 1.74371 2.30747 1.78238C2.33803 1.82003 2.43991 1.91006 2.61309 2.05249C2.78629 2.19491 3.01296 2.36024 3.29311 2.54844C3.57327 2.73664 3.88399 2.92231 4.22526 3.10544C4.56655 3.28856 4.9333 3.45387 5.32551 3.60139C5.71774 3.74891 5.9928 3.84555 6.1507 3.89133C6.30862 3.93711 6.57857 3.9956 6.96061 4.06682C7.34264 4.13804 7.63044 4.18382 7.824 4.20416C8.01756 4.22451 8.15001 4.23621 8.22131 4.23926L8.32828 4.24231L8.32524 4.21942L8.32064 4.19653L8.29007 4.00578C8.2697 3.87862 8.25951 3.70058 8.25951 3.47168C8.25951 3.24278 8.27734 3.03168 8.31299 2.83838C8.34866 2.64508 8.40215 2.44925 8.47345 2.25087C8.54477 2.05249 8.61456 1.89326 8.6828 1.77323C8.75209 1.6542 8.84275 1.51838 8.95481 1.36578C9.06688 1.21318 9.21205 1.0555 9.39032 0.892717C9.56861 0.729938 9.77235 0.584966 10.0016 0.457804C10.2308 0.330641 10.4422 0.233983 10.6357 0.167861C10.8293 0.101739 10.9923 0.0584921 11.1247 0.0381503C11.2572 0.0178086 11.3234 0.00610405 11.3234 0.00305202Z" fill="white"/>
</svg>
