<svg width="30" height="42" viewBox="0 0 30 42" fill="none" xmlns="http://www.w3.org/2000/svg">
<path d="M19.9061 20.7352C14.6787 20.7352 10.4531 15.5654 10.4531 9.19806C10.4531 15.5654 6.21588 20.7352 1 20.7352C6.22739 20.7352 10.4531 25.905 10.4531 32.2723C10.4531 25.905 14.6902 20.7352 19.9061 20.7352Z" stroke="#61C2EA" stroke-width="2" stroke-linecap="round" stroke-linejoin="round"/>
<path d="M28.1617 8.05814C24.9723 8.05814 22.3816 4.90328 22.3816 1C22.3816 4.89177 19.791 8.05814 16.6016 8.05814C19.791 8.05814 22.3816 11.213 22.3816 15.1163C22.3816 11.2245 24.9723 8.05814 28.1617 8.05814Z" stroke="#9A4C91" stroke-width="2" stroke-linecap="round" stroke-linejoin="round"/>
<path d="M28.1617 33.9419C24.9723 33.9419 22.3816 30.787 22.3816 26.8837C22.3816 30.7755 19.791 33.9419 16.6016 33.9419C19.791 33.9419 22.3816 37.0967 22.3816 41C22.3816 37.1083 24.9723 33.9419 28.1617 33.9419Z" stroke="#EE7624" stroke-width="2" stroke-linecap="round" stroke-linejoin="round"/>
</svg>
