<svg width="43" height="42" viewBox="0 0 43 42" fill="none" xmlns="http://www.w3.org/2000/svg">
<path d="M25.4097 28.322L1 41L13.678 16.5903L25.4097 28.322Z" stroke="#FB273E" stroke-width="2" stroke-linecap="round" stroke-linejoin="round"/>
<path d="M8.49609 26.7878H23.8383" stroke="#FB273E" stroke-width="2" stroke-linecap="round" stroke-linejoin="round"/>
<path d="M4.50977 34.3578H13.7886" stroke="#FB273E" stroke-width="2" stroke-linecap="round" stroke-linejoin="round"/>
<path d="M26.3652 23.5724C27.4125 22.5251 31.9968 18.9054 36.6638 23.5724" stroke="#9A4C91" stroke-width="2" stroke-linecap="round" stroke-linejoin="round"/>
<path d="M21.2568 6.20905C22.0837 7.4401 24.7571 12.6307 19.2725 16.3147" stroke="#9A4C91" stroke-width="2" stroke-linecap="round" stroke-linejoin="round"/>
<path d="M22.3689 21.7625C23.1503 21.7625 23.7837 21.1291 23.7837 20.3477C23.7837 19.5663 23.1503 18.9329 22.3689 18.9329C21.5875 18.9329 20.9541 19.5663 20.9541 20.3477C20.9541 21.1291 21.5875 21.7625 22.3689 21.7625Z" stroke="#61C2EA" stroke-width="2" stroke-linecap="round" stroke-linejoin="round"/>
<path d="M25.8965 16.8751L31.5097 11.2618" stroke="#9A4C91" stroke-width="2" stroke-linecap="round" stroke-linejoin="round"/>
<path d="M35.7634 17.7386C36.5448 17.7386 37.1782 17.1052 37.1782 16.3238C37.1782 15.5425 36.5448 14.9091 35.7634 14.9091C34.9821 14.9091 34.3486 15.5425 34.3486 16.3238C34.3486 17.1052 34.9821 17.7386 35.7634 17.7386Z" stroke="#EE7624" stroke-width="2" stroke-linecap="round" stroke-linejoin="round"/>
<path d="M35.2302 9.48876C36.0116 9.48876 36.645 8.85534 36.645 8.07397C36.645 7.2926 36.0116 6.65918 35.2302 6.65918C34.4489 6.65918 33.8154 7.2926 33.8154 8.07397C33.8154 8.85534 34.4489 9.48876 35.2302 9.48876Z" stroke="#61C2EA" stroke-width="2" stroke-linecap="round" stroke-linejoin="round"/>
<path d="M26.7419 8.42309C27.5233 8.42309 28.1567 7.78966 28.1567 7.0083C28.1567 6.22693 27.5233 5.59351 26.7419 5.59351C25.9606 5.59351 25.3271 6.22693 25.3271 7.0083C25.3271 7.78966 25.9606 8.42309 26.7419 8.42309Z" stroke="#EE7624" stroke-width="2" stroke-linecap="round" stroke-linejoin="round"/>
<path d="M39.7595 28.2026C40.5409 28.2026 41.1743 27.5691 41.1743 26.7878C41.1743 26.0064 40.5409 25.373 39.7595 25.373C38.9781 25.373 38.3447 26.0064 38.3447 26.7878C38.3447 27.5691 38.9781 28.2026 39.7595 28.2026Z" stroke="#61C2EA" stroke-width="2" stroke-linecap="round" stroke-linejoin="round"/>
<path d="M31.657 26.6775C32.4384 26.6775 33.0718 26.0441 33.0718 25.2628C33.0718 24.4814 32.4384 23.848 31.657 23.848C30.8756 23.848 30.2422 24.4814 30.2422 25.2628C30.2422 26.0441 30.8756 26.6775 31.657 26.6775Z" stroke="#EE7624" stroke-width="2" stroke-linecap="round" stroke-linejoin="round"/>
<path d="M18.5193 12.254C19.3007 12.254 19.9341 11.6206 19.9341 10.8392C19.9341 10.0579 19.3007 9.42444 18.5193 9.42444C17.7379 9.42444 17.1045 10.0579 17.1045 10.8392C17.1045 11.6206 17.7379 12.254 18.5193 12.254Z" stroke="#EE7624" stroke-width="2" stroke-linecap="round" stroke-linejoin="round"/>
<path d="M18.2995 3.82958C19.0809 3.82958 19.7143 3.19616 19.7143 2.41479C19.7143 1.63342 19.0809 1 18.2995 1C17.5182 1 16.8848 1.63342 16.8848 2.41479C16.8848 3.19616 17.5182 3.82958 18.2995 3.82958Z" stroke="#61C2EA" stroke-width="2" stroke-linecap="round" stroke-linejoin="round"/>
</svg>
