<svg width="42" height="42" viewBox="0 0 42 42" fill="none" xmlns="http://www.w3.org/2000/svg">
<path d="M33.5322 3.96539L20.8421 16.6664L8.14111 3.96539" stroke="#EE7624" stroke-width="2" stroke-linecap="round" stroke-linejoin="round"/>
<path d="M4.24902 33.2595L16.9391 20.5585L4.24902 7.86835" stroke="#61C2EA" stroke-width="2" stroke-linecap="round" stroke-linejoin="round"/>
<path d="M37.7513 8.18451L25.0503 20.8746L37.7513 33.5756" stroke="#FB273E" stroke-width="2" stroke-linecap="round" stroke-linejoin="round"/>
<path d="M8.45703 37.4677L21.158 24.7776L33.8482 37.4677" stroke="#9A4C91" stroke-width="2" stroke-linecap="round" stroke-linejoin="round"/>
<path d="M20.9948 8.74053C23.1323 8.74053 24.865 7.00775 24.865 4.87026C24.865 2.73278 23.1323 1 20.9948 1C18.8573 1 17.1245 2.73278 17.1245 4.87026C17.1245 7.00775 18.8573 8.74053 20.9948 8.74053Z" stroke="#EE7624" stroke-width="2" stroke-linecap="round" stroke-linejoin="round"/>
<path d="M20.9948 41C23.1323 41 24.865 39.2672 24.865 37.1297C24.865 34.9922 23.1323 33.2595 20.9948 33.2595C18.8573 33.2595 17.1245 34.9922 17.1245 37.1297C17.1245 39.2672 18.8573 41 20.9948 41Z" stroke="#9A4C91" stroke-width="2" stroke-linecap="round" stroke-linejoin="round"/>
<path d="M37.1295 24.8757C39.267 24.8757 40.9998 23.1429 40.9998 21.0055C40.9998 18.868 39.267 17.1352 37.1295 17.1352C34.992 17.1352 33.2593 18.868 33.2593 21.0055C33.2593 23.1429 34.992 24.8757 37.1295 24.8757Z" stroke="#FB273E" stroke-width="2" stroke-linecap="round" stroke-linejoin="round"/>
<path d="M4.87027 24.8757C7.00776 24.8757 8.74053 23.1429 8.74053 21.0055C8.74053 18.868 7.00776 17.1352 4.87027 17.1352C2.73278 17.1352 1 18.868 1 21.0055C1 23.1429 2.73278 24.8757 4.87027 24.8757Z" stroke="#61C2EA" stroke-width="2" stroke-linecap="round" stroke-linejoin="round"/>
</svg>
